<svg width="23" height="40" viewBox="0 0 23 40" fill="none" xmlns="http://www.w3.org/2000/svg">
<path d="M14.0234 40H7.6178C6.54785 40 5.67749 39.1296 5.67749 38.0597V23.6115H1.94031C0.870361 23.6115 0 22.7408 0 21.6711V15.48C0 14.4101 0.870361 13.5397 1.94031 13.5397H5.67749V10.4395C5.67749 7.36542 6.64276 4.75006 8.46863 2.87659C10.3027 0.994568 12.8659 0 15.881 0L20.7663 0.00793453C21.8344 0.00976563 22.7032 0.880127 22.7032 1.94824V7.69653C22.7032 8.76648 21.8332 9.63684 20.7636 9.63684L17.4744 9.63806C16.4713 9.63806 16.2158 9.83917 16.1612 9.90082C16.0712 10.0031 15.9641 10.2921 15.9641 11.0901V13.5394H20.5164C20.8591 13.5394 21.1911 13.624 21.4764 13.7833C22.092 14.1272 22.4747 14.7775 22.4747 15.4803L22.4722 21.6714C22.4722 22.7408 21.6019 23.6111 20.5319 23.6111H15.9641V38.0597C15.9641 39.1296 15.0934 40 14.0234 40ZM8.02246 37.655H13.6188V22.5616C13.6188 21.8472 14.2001 21.2662 14.9142 21.2662H20.1273L20.1294 15.8847H14.9139C14.1998 15.8847 13.6188 15.3037 13.6188 14.5892V11.0901C13.6188 10.174 13.7119 9.13208 14.4034 8.349C15.239 7.40234 16.5558 7.29309 17.4738 7.29309L20.3583 7.29187V2.35229L15.8792 2.34497C11.0336 2.34497 8.02246 5.44678 8.02246 10.4395V14.5892C8.02246 15.3033 7.44141 15.8847 6.7273 15.8847H2.34497V21.2662H6.7273C7.44141 21.2662 8.02246 21.8472 8.02246 22.5616V37.655Z" fill="white"/>
</svg>
