<svg width="77" height="77" viewBox="0 0 77 77" fill="none" xmlns="http://www.w3.org/2000/svg">
<g filter="url(#filter0_d)">
<rect x="7" width="70" height="70" rx="10" fill="#880D0D"/>
</g>
<path d="M36.3531 31.3452C36.1583 31.1801 35.875 31.1741 35.6737 31.3301C35.4611 31.4947 35.2658 31.683 35.0915 31.8913C33.7673 33.4745 33.9783 35.8391 35.5615 37.1639C36.2608 37.7483 37.1124 38.0338 37.9596 38.0338C39.0307 38.0338 40.0948 37.5778 40.8341 36.6939C40.996 36.4996 41.139 36.2892 41.2588 36.0674C41.3802 35.8429 41.3273 35.5645 41.1331 35.3993L36.3531 31.3452ZM40.0058 36.001C39.0636 37.1272 37.3806 37.2778 36.2538 36.3356C35.1277 35.3934 34.9771 33.7103 35.9193 32.5836C35.9506 32.5464 35.9829 32.5097 36.0159 32.4741L40.0743 35.9158C40.0517 35.9444 40.029 35.973 40.0058 36.001Z" fill="white"/>
<path d="M35.6322 29.2617C35.8216 29.4317 36.0272 29.5823 36.2436 29.7091C36.3288 29.7587 36.4227 29.783 36.5161 29.783C36.6639 29.783 36.8096 29.7226 36.9149 29.6071L41.1374 24.9761C41.309 24.7878 41.3257 24.5045 41.1768 24.2978C41.0197 24.0793 40.8384 23.8769 40.6371 23.6961C39.1025 22.3163 36.7314 22.441 35.3511 23.9762C33.9718 25.5103 34.0975 27.8814 35.6322 29.2617ZM36.154 24.6977C36.6791 24.1132 37.4059 23.8165 38.1355 23.8165C38.7701 23.8165 39.4074 24.0415 39.9151 24.4985C39.9513 24.5309 39.9864 24.5644 40.0209 24.5989L36.4357 28.5311C36.4076 28.5079 36.3801 28.4841 36.3531 28.4599C35.2615 27.4772 35.1724 25.7893 36.154 24.6977Z" fill="white"/>
<path d="M27.5638 15.3941C28.513 16.1339 29.6662 16.5144 30.9116 16.5144C31.3541 16.5144 31.8101 16.4545 32.2704 16.3573C32.6265 18.4683 32.7544 20.9975 32.1614 23.5062C29.7493 33.7098 31.557 39.8156 37.5117 41.6843V47.0902H34.0047C33.7068 47.0902 33.4651 47.3319 33.4651 47.6298C33.4651 47.9276 33.7068 48.1694 34.0047 48.1694H42.0979C42.3958 48.1694 42.6375 47.9276 42.6375 47.6298C42.6375 47.3319 42.3958 47.0902 42.0979 47.0902H38.5909V41.6638C44.4965 39.7724 46.2842 33.6742 43.8802 23.5062C42.4459 17.4387 45.2358 11.2218 45.2644 11.1603C45.3404 10.993 45.3264 10.7987 45.2277 10.6439C45.1284 10.4895 44.9573 10.3962 44.7739 10.3962H37.1226C36.876 7.38025 34.3468 5 31.2683 5C28.0268 5 25.3897 7.63711 25.3897 10.8786C25.3903 12.6453 26.2024 14.3332 27.5638 15.3941ZM38.0211 40.7248C32.4684 39.106 30.896 33.5528 33.212 23.7544C33.6734 21.8031 33.7322 19.8605 33.5876 18.0933C34.0123 18.2821 34.5276 18.4187 35.1924 18.4187C36.5841 18.4187 37.3563 17.8245 38.0378 17.3006C38.6616 16.8209 39.2001 16.4064 40.2243 16.4064C41.2507 16.4064 41.7892 16.8214 42.413 17.3022L42.5269 17.3891C42.304 19.3382 42.3067 21.5393 42.8301 23.7544C45.1467 33.5528 43.5737 39.1054 38.0211 40.7248ZM42.699 16.1679C42.0973 15.7319 41.3732 15.3267 40.2238 15.3267C38.8327 15.3267 38.0605 15.9208 37.3795 16.4447C36.7551 16.925 36.2166 17.3394 35.1919 17.3394C34.3663 17.3394 33.8601 17.0637 33.4354 16.7653L33.4343 16.7669C33.0987 14.4093 32.4603 12.485 32.0734 11.4754H43.9677C43.6148 12.3982 43.0498 14.0855 42.699 16.1679ZM31.2683 6.0787C33.7522 6.0787 35.8006 7.97491 36.0434 10.3956H31.2683C31.0848 10.3956 30.9132 10.489 30.8145 10.6439C30.7152 10.7982 30.7017 10.993 30.7778 11.1603C30.7924 11.1921 31.5419 12.8601 32.0675 15.3002C30.229 15.6958 28.9668 15.1189 28.2276 14.5431C27.1267 13.6851 26.4695 12.3156 26.4695 10.8786C26.4695 8.23177 28.622 6.0787 31.2683 6.0787Z" fill="white"/>
<path d="M27.8374 11.4182H29.1352C29.4331 11.4182 29.6748 11.1765 29.6748 10.8786C29.6748 10.5807 29.4331 10.339 29.1352 10.339H27.8374C27.5396 10.339 27.2978 10.5807 27.2978 10.8786C27.2978 11.1765 27.5396 11.4182 27.8374 11.4182Z" fill="white"/>
<path d="M31.2683 9.28456C31.5662 9.28456 31.8079 9.04281 31.8079 8.74494V7.44716C31.8079 7.1493 31.5662 6.90755 31.2683 6.90755C30.9704 6.90755 30.7287 7.1493 30.7287 7.44716V8.74494C30.7287 9.04335 30.9704 9.28456 31.2683 9.28456Z" fill="white"/>
<path d="M29.3786 12.0048L28.4607 12.9227C28.2497 13.1337 28.2497 13.4747 28.4607 13.6857C28.5659 13.7909 28.704 13.8438 28.8422 13.8438C28.9803 13.8438 29.1185 13.7909 29.2237 13.6857L30.1416 12.7678C30.3526 12.5568 30.3526 12.2158 30.1416 12.0048C29.9306 11.7938 29.5896 11.7943 29.3786 12.0048Z" fill="white"/>
<path d="M32.7771 9.90944C32.9152 9.90944 33.0534 9.85656 33.1586 9.75133L34.0765 8.83344C34.2875 8.62245 34.2875 8.28141 34.0765 8.07042C33.8655 7.85943 33.5244 7.85943 33.3135 8.07042L32.3956 8.98831C32.1846 9.1993 32.1846 9.54034 32.3956 9.75133C32.5008 9.85656 32.6389 9.90944 32.7771 9.90944Z" fill="white"/>
<path d="M29.3786 9.75133C29.4838 9.85656 29.6219 9.90944 29.7601 9.90944C29.8982 9.90944 30.0364 9.85656 30.1416 9.75133C30.3526 9.54034 30.3526 9.1993 30.1416 8.98831L29.2237 8.07042C29.0127 7.85943 28.6717 7.85943 28.4607 8.07042C28.2497 8.28141 28.2497 8.62245 28.4607 8.83344L29.3786 9.75133Z" fill="white"/>
<path d="M65.2626 28.7977C65.2626 25.0948 62.987 21.781 59.561 20.432V12.8622C60.2533 12.7878 60.7956 12.2071 60.7956 11.4954V8.17457C60.7956 7.46281 60.2533 6.88219 59.561 6.80772V5.6837C59.561 5.38583 59.3192 5.14408 59.0214 5.14408H53.507C53.2091 5.14408 52.9674 5.38583 52.9674 5.6837V6.80772C52.2751 6.88219 51.7328 7.46281 51.7328 8.17457V11.4954C51.7328 12.2071 52.2751 12.7878 52.9674 12.8622V20.432C49.5414 21.781 47.2658 25.0953 47.2658 28.7977V46.1086C47.2658 47.2817 48.2204 48.2363 49.3935 48.2363H63.1349C64.308 48.2363 65.2626 47.2817 65.2626 46.1086V28.7977ZM48.345 29.0427H64.1839V42.5423H48.345V29.0427ZM58.4818 17.1954H54.0466V12.8773H58.4818V17.1954ZM58.4818 6.22331V6.79315H54.0466V6.22331H58.4818ZM52.812 11.4954V8.17457C52.812 8.00783 52.9474 7.87184 53.1147 7.87184H59.4142C59.5809 7.87184 59.7169 8.00729 59.7169 8.17457V11.4954C59.7169 11.6621 59.5815 11.7981 59.4142 11.7981H53.1147C52.9474 11.7976 52.812 11.6621 52.812 11.4954ZM53.6829 21.3175C53.9004 21.2425 54.0466 21.0374 54.0466 20.8076V18.2746H58.4818V20.8076C58.4818 21.038 58.628 21.2425 58.8455 21.3175C61.7718 22.3277 63.8132 24.9389 64.1342 27.9634H48.3941C48.7152 24.9383 50.7566 22.3271 53.6829 21.3175ZM63.1349 47.1565H49.3935C48.8156 47.1565 48.345 46.686 48.345 46.1081V43.6215H64.1839V46.1081C64.1833 46.686 63.7133 47.1565 63.1349 47.1565Z" fill="white"/>
<path d="M20.6389 61.0872C20.6239 61.2936 20.5475 61.4561 20.4096 61.5747C20.2726 61.6933 20.0917 61.7525 19.8669 61.7525C19.6209 61.7525 19.4273 61.67 19.2859 61.5049C19.1454 61.3389 19.0751 61.1114 19.0751 60.8224V60.7052C19.0751 60.5208 19.1076 60.3583 19.1726 60.2177C19.2376 60.0772 19.3302 59.9696 19.4506 59.895C19.5718 59.8194 19.7123 59.7817 19.8721 59.7817C20.0935 59.7817 20.2718 59.841 20.407 59.9595C20.5423 60.0781 20.6204 60.2445 20.6415 60.4588H20.2463C20.2366 60.335 20.2019 60.2454 20.1422 60.1901C20.0834 60.1339 19.9933 60.1058 19.8721 60.1058C19.7404 60.1058 19.6416 60.1532 19.5757 60.248C19.5107 60.342 19.4773 60.4883 19.4756 60.6867V60.8317C19.4756 61.0389 19.5068 61.1904 19.5691 61.2862C19.6324 61.3819 19.7316 61.4298 19.8669 61.4298C19.9889 61.4298 20.0798 61.4021 20.1396 61.3468C20.2002 61.2906 20.2349 61.2041 20.2436 61.0872H20.6389Z" fill="white"/>
<path d="M21.6744 60.6578C21.6226 60.6507 21.5769 60.6472 21.5374 60.6472C21.3933 60.6472 21.2989 60.696 21.2541 60.7935V61.7262H20.8734V60.3007H21.233L21.2436 60.4707C21.32 60.3398 21.4258 60.2744 21.5611 60.2744C21.6032 60.2744 21.6428 60.2801 21.6796 60.2915L21.6744 60.6578Z" fill="white"/>
<path d="M22.4885 61.7525C22.2795 61.7525 22.1091 61.6884 21.9774 61.5602C21.8465 61.432 21.7811 61.2611 21.7811 61.0477V61.0108C21.7811 60.8677 21.8088 60.7399 21.8641 60.6275C21.9194 60.5142 21.9976 60.4272 22.0986 60.3666C22.2005 60.3051 22.3164 60.2744 22.4464 60.2744C22.6414 60.2744 22.7946 60.3359 22.9062 60.4588C23.0186 60.5818 23.0748 60.7561 23.0748 60.9819V61.1373H22.1671C22.1794 61.2304 22.2163 61.3051 22.2778 61.3613C22.3401 61.4175 22.4187 61.4456 22.5136 61.4456C22.6602 61.4456 22.7749 61.3924 22.8574 61.2862L23.0445 61.4956C22.9874 61.5764 22.9101 61.6397 22.8126 61.6854C22.7151 61.7301 22.6071 61.7525 22.4885 61.7525ZM22.4451 60.5827C22.3695 60.5827 22.3081 60.6081 22.2606 60.6591C22.2141 60.71 22.1842 60.7829 22.171 60.8778H22.7006V60.8475C22.6989 60.7632 22.6761 60.6982 22.6321 60.6525C22.5882 60.6059 22.5259 60.5827 22.4451 60.5827Z" fill="white"/>
<path d="M24.1182 61.7262C24.1006 61.6919 24.0879 61.6493 24.08 61.5984C23.9878 61.7012 23.8679 61.7525 23.7203 61.7525C23.5807 61.7525 23.4648 61.7121 23.3725 61.6313C23.2812 61.5505 23.2355 61.4487 23.2355 61.3257C23.2355 61.1746 23.2913 61.0587 23.4028 60.9779C23.5153 60.8971 23.6773 60.8563 23.889 60.8554H24.0642V60.7737C24.0642 60.7078 24.0471 60.6551 24.0128 60.6156C23.9794 60.5761 23.9263 60.5563 23.8534 60.5563C23.7893 60.5563 23.7388 60.5717 23.7019 60.6024C23.6659 60.6332 23.6479 60.6753 23.6479 60.7289H23.2671C23.2671 60.6463 23.2926 60.5699 23.3436 60.4997C23.3945 60.4294 23.4665 60.3745 23.5596 60.335C23.6527 60.2946 23.7572 60.2744 23.8732 60.2744C24.0488 60.2744 24.188 60.3187 24.2908 60.4075C24.3944 60.4953 24.4462 60.6191 24.4462 60.779V61.3968C24.4471 61.5321 24.466 61.6344 24.5029 61.7038V61.7262H24.1182ZM23.8033 61.4614C23.8595 61.4614 23.9114 61.4491 23.9588 61.4245C24.0062 61.399 24.0413 61.3652 24.0642 61.3231V61.078H23.9219C23.7313 61.078 23.6299 61.1439 23.6176 61.2756L23.6163 61.298C23.6163 61.3455 23.6329 61.3845 23.6663 61.4153C23.6997 61.446 23.7454 61.4614 23.8033 61.4614Z" fill="white"/>
<path d="M25.1945 59.9503V60.3007H25.4383V60.58H25.1945V61.2914C25.1945 61.3441 25.2046 61.3819 25.2248 61.4047C25.245 61.4276 25.2837 61.439 25.3408 61.439C25.3829 61.439 25.4203 61.4359 25.4527 61.4298V61.7183C25.3781 61.7411 25.3012 61.7525 25.2222 61.7525C24.9552 61.7525 24.8191 61.6177 24.8138 61.3481V60.58H24.6056V60.3007H24.8138V59.9503H25.1945Z" fill="white"/>
<path d="M26.3064 61.7525C26.0974 61.7525 25.927 61.6884 25.7953 61.5602C25.6644 61.432 25.599 61.2611 25.599 61.0477V61.0108C25.599 60.8677 25.6266 60.7399 25.682 60.6275C25.7373 60.5142 25.8155 60.4272 25.9165 60.3666C26.0184 60.3051 26.1343 60.2744 26.2643 60.2744C26.4593 60.2744 26.6125 60.3359 26.7241 60.4588C26.8365 60.5818 26.8927 60.7561 26.8927 60.9819V61.1373H25.985C25.9973 61.2304 26.0342 61.3051 26.0957 61.3613C26.158 61.4175 26.2366 61.4456 26.3315 61.4456C26.4781 61.4456 26.5928 61.3924 26.6753 61.2862L26.8624 61.4956C26.8053 61.5764 26.728 61.6397 26.6305 61.6854C26.533 61.7301 26.425 61.7525 26.3064 61.7525ZM26.263 60.5827C26.1874 60.5827 26.126 60.6081 26.0785 60.6591C26.032 60.71 26.0021 60.7829 25.9889 60.8778H26.5185V60.8475C26.5168 60.7632 26.494 60.6982 26.45 60.6525C26.4061 60.6059 26.3438 60.5827 26.263 60.5827Z" fill="white"/>
<path d="M27.0508 61.0029C27.0508 60.7807 27.1004 60.6038 27.1997 60.472C27.2998 60.3403 27.4364 60.2744 27.6094 60.2744C27.7481 60.2744 27.8628 60.3262 27.9532 60.4298V59.7026H28.3353V61.7262H27.9914L27.973 61.5747C27.8781 61.6933 27.756 61.7525 27.6067 61.7525C27.439 61.7525 27.3042 61.6867 27.2023 61.5549C27.1013 61.4223 27.0508 61.2383 27.0508 61.0029ZM27.4315 61.0306C27.4315 61.1641 27.4548 61.2664 27.5013 61.3376C27.5479 61.4087 27.6155 61.4443 27.7042 61.4443C27.8219 61.4443 27.9049 61.3946 27.9532 61.2954V60.7329C27.9058 60.6336 27.8237 60.584 27.7069 60.584C27.5233 60.584 27.4315 60.7329 27.4315 61.0306Z" fill="white"/>
<path d="M30.5868 61.0266C30.5868 61.255 30.538 61.4333 30.4405 61.5615C30.343 61.6889 30.2069 61.7525 30.0321 61.7525C29.8775 61.7525 29.7541 61.6933 29.6619 61.5747L29.6448 61.7262H29.3023V59.7026H29.683V60.4285C29.7708 60.3258 29.8863 60.2744 30.0295 60.2744C30.2034 60.2744 30.3395 60.3385 30.4379 60.4667C30.5371 60.5941 30.5868 60.7737 30.5868 61.0056V61.0266ZM30.206 60.999C30.206 60.8549 30.1832 60.75 30.1375 60.6841C30.0918 60.6174 30.0238 60.584 29.9333 60.584C29.8121 60.584 29.7287 60.6336 29.683 60.7329V61.2954C29.7295 61.3955 29.8139 61.4456 29.9359 61.4456C30.0589 61.4456 30.1397 61.385 30.1784 61.2638C30.1968 61.2058 30.206 61.1175 30.206 60.999Z" fill="white"/>
<path d="M31.339 61.1874L31.6025 60.3007H32.0109L31.4378 61.9475L31.4062 62.0226C31.321 62.2088 31.1805 62.3019 30.9846 62.3019C30.9293 62.3019 30.8731 62.2936 30.816 62.2769V61.9884L30.874 61.9897C30.946 61.9897 30.9995 61.9787 31.0347 61.9567C31.0707 61.9348 31.0988 61.8983 31.119 61.8474L31.1638 61.7301L30.6645 60.3007H31.0742L31.339 61.1874Z" fill="white"/>
<path d="M33.3744 59.808L33.8671 61.1992L34.3572 59.808H34.8763V61.7262H34.4797V61.2019L34.5193 60.2968L34.0015 61.7262H33.7301L33.2137 60.2981L33.2532 61.2019V61.7262H32.858V59.808H33.3744Z" fill="white"/>
<path d="M36.0225 61.7262C36.0049 61.6919 35.9922 61.6493 35.9842 61.5984C35.892 61.7012 35.7721 61.7525 35.6246 61.7525C35.4849 61.7525 35.369 61.7121 35.2768 61.6313C35.1854 61.5505 35.1398 61.4487 35.1398 61.3257C35.1398 61.1746 35.1955 61.0587 35.3071 60.9779C35.4195 60.8971 35.5816 60.8563 35.7932 60.8554H35.9684V60.7737C35.9684 60.7078 35.9513 60.6551 35.9171 60.6156C35.8837 60.5761 35.8305 60.5563 35.7576 60.5563C35.6935 60.5563 35.643 60.5717 35.6061 60.6024C35.5701 60.6332 35.5521 60.6753 35.5521 60.7289H35.1714C35.1714 60.6463 35.1969 60.5699 35.2478 60.4997C35.2987 60.4294 35.3708 60.3745 35.4639 60.335C35.557 60.2946 35.6615 60.2744 35.7774 60.2744C35.9531 60.2744 36.0923 60.3187 36.195 60.4075C36.2987 60.4953 36.3505 60.6191 36.3505 60.779V61.3968C36.3514 61.5321 36.3703 61.6344 36.4071 61.7038V61.7262H36.0225ZM35.7076 61.4614C35.7638 61.4614 35.8156 61.4491 35.863 61.4245C35.9105 61.399 35.9456 61.3652 35.9684 61.3231V61.078H35.8262C35.6356 61.078 35.5341 61.1439 35.5218 61.2756L35.5205 61.298C35.5205 61.3455 35.5372 61.3845 35.5706 61.4153C35.6039 61.446 35.6496 61.4614 35.7076 61.4614Z" fill="white"/>
<path d="M36.5837 61.0029C36.5837 60.7807 36.6333 60.6038 36.7325 60.472C36.8327 60.3403 36.9692 60.2744 37.1423 60.2744C37.281 60.2744 37.3956 60.3262 37.4861 60.4298V59.7026H37.8682V61.7262H37.5243L37.5059 61.5747C37.411 61.6933 37.2889 61.7525 37.1396 61.7525C36.9719 61.7525 36.8371 61.6867 36.7352 61.5549C36.6342 61.4223 36.5837 61.2383 36.5837 61.0029ZM36.9644 61.0306C36.9644 61.1641 36.9877 61.2664 37.0342 61.3376C37.0808 61.4087 37.1484 61.4443 37.2371 61.4443C37.3548 61.4443 37.4378 61.3946 37.4861 61.2954V60.7329C37.4387 60.6336 37.3566 60.584 37.2398 60.584C37.0562 60.584 36.9644 60.7329 36.9644 61.0306Z" fill="white"/>
<path d="M38.8193 61.7525C38.6103 61.7525 38.4399 61.6884 38.3082 61.5602C38.1773 61.432 38.1119 61.2611 38.1119 61.0477V61.0108C38.1119 60.8677 38.1396 60.7399 38.1949 60.6275C38.2502 60.5142 38.3284 60.4272 38.4294 60.3666C38.5313 60.3051 38.6472 60.2744 38.7772 60.2744C38.9722 60.2744 39.1254 60.3359 39.237 60.4588C39.3494 60.5818 39.4056 60.7561 39.4056 60.9819V61.1373H38.4979C38.5102 61.2304 38.5471 61.3051 38.6086 61.3613C38.6709 61.4175 38.7495 61.4456 38.8444 61.4456C38.991 61.4456 39.1057 61.3924 39.1882 61.2862L39.3753 61.4956C39.3182 61.5764 39.2409 61.6397 39.1434 61.6854C39.0459 61.7301 38.9379 61.7525 38.8193 61.7525ZM38.7759 60.5827C38.7003 60.5827 38.6389 60.6081 38.5914 60.6591C38.5449 60.71 38.515 60.7829 38.5018 60.8778H39.0315V60.8475C39.0297 60.7632 39.0069 60.6982 38.9629 60.6525C38.919 60.6059 38.8567 60.5827 38.7759 60.5827Z" fill="white"/>
<path d="M41.5794 61.0266C41.5794 61.255 41.5306 61.4333 41.4331 61.5615C41.3356 61.6889 41.1995 61.7525 41.0247 61.7525C40.8701 61.7525 40.7467 61.6933 40.6545 61.5747L40.6374 61.7262H40.2949V59.7026H40.6756V60.4285C40.7634 60.3258 40.8789 60.2744 41.0221 60.2744C41.196 60.2744 41.3321 60.3385 41.4305 60.4667C41.5297 60.5941 41.5794 60.7737 41.5794 61.0056V61.0266ZM41.1986 60.999C41.1986 60.8549 41.1758 60.75 41.1301 60.6841C41.0844 60.6174 41.0164 60.584 40.9259 60.584C40.8047 60.584 40.7213 60.6336 40.6756 60.7329V61.2954C40.7221 61.3955 40.8065 61.4456 40.9285 61.4456C41.0515 61.4456 41.1323 61.385 41.1709 61.2638C41.1894 61.2058 41.1986 61.1175 41.1986 60.999Z" fill="white"/>
<path d="M42.3316 61.1874L42.5951 60.3007H43.0035L42.4304 61.9475L42.3988 62.0226C42.3136 62.2088 42.1731 62.3019 41.9772 62.3019C41.9219 62.3019 41.8657 62.2936 41.8086 62.2769V61.9884L41.8665 61.9897C41.9386 61.9897 41.9921 61.9787 42.0273 61.9567C42.0633 61.9348 42.0914 61.8983 42.1116 61.8474L42.1564 61.7301L41.6571 60.3007H42.0668L42.3316 61.1874Z" fill="white"/>
<path d="M44.367 59.808L44.8597 61.1992L45.3498 59.808H45.8689V61.7262H45.4723V61.2019L45.5119 60.2968L44.9941 61.7262H44.7227L44.2063 60.2981L44.2458 61.2019V61.7262H43.8506V59.808H44.367Z" fill="white"/>
<path d="M47.015 61.7262C46.9975 61.6919 46.9847 61.6493 46.9768 61.5984C46.8846 61.7012 46.7647 61.7525 46.6172 61.7525C46.4775 61.7525 46.3616 61.7121 46.2694 61.6313C46.178 61.5505 46.1324 61.4487 46.1324 61.3257C46.1324 61.1746 46.1881 61.0587 46.2997 60.9779C46.4121 60.8971 46.5741 60.8563 46.7858 60.8554H46.961V60.7737C46.961 60.7078 46.9439 60.6551 46.9097 60.6156C46.8763 60.5761 46.8231 60.5563 46.7502 60.5563C46.6861 60.5563 46.6356 60.5717 46.5987 60.6024C46.5627 60.6332 46.5447 60.6753 46.5447 60.7289H46.164C46.164 60.6463 46.1895 60.5699 46.2404 60.4997C46.2913 60.4294 46.3634 60.3745 46.4565 60.335C46.5496 60.2946 46.6541 60.2744 46.77 60.2744C46.9457 60.2744 47.0849 60.3187 47.1876 60.4075C47.2913 60.4953 47.3431 60.6191 47.3431 60.779V61.3968C47.344 61.5321 47.3628 61.6344 47.3997 61.7038V61.7262H47.015ZM46.7002 61.4614C46.7564 61.4614 46.8082 61.4491 46.8556 61.4245C46.9031 61.399 46.9382 61.3652 46.961 61.3231V61.078H46.8188C46.6282 61.078 46.5267 61.1439 46.5144 61.2756L46.5131 61.298C46.5131 61.3455 46.5298 61.3845 46.5632 61.4153C46.5965 61.446 46.6422 61.4614 46.7002 61.4614Z" fill="white"/>
<path d="M47.5763 61.0029C47.5763 60.7807 47.6259 60.6038 47.7251 60.472C47.8253 60.3403 47.9618 60.2744 48.1349 60.2744C48.2736 60.2744 48.3882 60.3262 48.4787 60.4298V59.7026H48.8608V61.7262H48.5169L48.4985 61.5747C48.4036 61.6933 48.2815 61.7525 48.1322 61.7525C47.9645 61.7525 47.8297 61.6867 47.7278 61.5549C47.6268 61.4223 47.5763 61.2383 47.5763 61.0029ZM47.957 61.0306C47.957 61.1641 47.9803 61.2664 48.0268 61.3376C48.0734 61.4087 48.141 61.4443 48.2297 61.4443C48.3474 61.4443 48.4304 61.3946 48.4787 61.2954V60.7329C48.4313 60.6336 48.3492 60.584 48.2323 60.584C48.0488 60.584 47.957 60.7329 47.957 61.0306Z" fill="white"/>
<path d="M49.8119 61.7525C49.6029 61.7525 49.4325 61.6884 49.3008 61.5602C49.1699 61.432 49.1045 61.2611 49.1045 61.0477V61.0108C49.1045 60.8677 49.1321 60.7399 49.1875 60.6275C49.2428 60.5142 49.321 60.4272 49.422 60.3666C49.5239 60.3051 49.6398 60.2744 49.7698 60.2744C49.9648 60.2744 50.118 60.3359 50.2296 60.4588C50.342 60.5818 50.3982 60.7561 50.3982 60.9819V61.1373H49.4905C49.5028 61.2304 49.5397 61.3051 49.6012 61.3613C49.6635 61.4175 49.7421 61.4456 49.837 61.4456C49.9836 61.4456 50.0983 61.3924 50.1808 61.2862L50.3679 61.4956C50.3108 61.5764 50.2335 61.6397 50.136 61.6854C50.0385 61.7301 49.9305 61.7525 49.8119 61.7525ZM49.7685 60.5827C49.6929 60.5827 49.6315 60.6081 49.584 60.6591C49.5375 60.71 49.5076 60.7829 49.4944 60.8778H50.024V60.8475C50.0223 60.7632 49.9995 60.6982 49.9555 60.6525C49.9116 60.6059 49.8493 60.5827 49.7685 60.5827Z" fill="white"/>
<path d="M19.2121 64.4243V63.2781H19V62.9988H19.2121V62.8776C19.2121 62.7178 19.2578 62.5939 19.3491 62.5061C19.4413 62.4174 19.57 62.3731 19.7351 62.3731C19.7878 62.3731 19.8524 62.3818 19.9288 62.3994L19.9248 62.6945C19.8932 62.6866 19.8546 62.6826 19.8089 62.6826C19.6657 62.6826 19.5942 62.7498 19.5942 62.8842V62.9988H19.8774V63.2781H19.5942V64.4243H19.2121Z" fill="white"/>
<path d="M20.876 63.3559C20.8242 63.3488 20.7785 63.3453 20.739 63.3453C20.595 63.3453 20.5005 63.3941 20.4558 63.4915V64.4243H20.075V62.9988H20.4347L20.4452 63.1688C20.5216 63.0379 20.6275 62.9725 20.7627 62.9725C20.8049 62.9725 20.8444 62.9782 20.8813 62.9896L20.876 63.3559Z" fill="white"/>
<path d="M20.9537 63.6984C20.9537 63.557 20.981 63.4309 21.0354 63.3203C21.0899 63.2096 21.168 63.124 21.2699 63.0634C21.3727 63.0028 21.4917 62.9725 21.6269 62.9725C21.8193 62.9725 21.9761 63.0313 22.0973 63.149C22.2193 63.2667 22.2874 63.4266 22.3015 63.6286L22.3041 63.726C22.3041 63.9447 22.2431 64.1204 22.121 64.253C21.9989 64.3848 21.8351 64.4506 21.6296 64.4506C21.4241 64.4506 21.2598 64.3848 21.1369 64.253C21.0148 64.1213 20.9537 63.9421 20.9537 63.7155V63.6984ZM21.3345 63.726C21.3345 63.8613 21.3599 63.9649 21.4109 64.037C21.4618 64.1081 21.5347 64.1437 21.6296 64.1437C21.7218 64.1437 21.7938 64.1085 21.8456 64.0383C21.8975 63.9671 21.9234 63.8538 21.9234 63.6984C21.9234 63.5658 21.8975 63.463 21.8456 63.3901C21.7938 63.3172 21.7209 63.2808 21.6269 63.2808C21.5338 63.2808 21.4618 63.3172 21.4109 63.3901C21.3599 63.4621 21.3345 63.5741 21.3345 63.726Z" fill="white"/>
<path d="M22.8956 62.9988L22.9075 63.1582C23.0085 63.0344 23.1451 62.9725 23.3172 62.9725C23.5008 62.9725 23.6268 63.0449 23.6953 63.1899C23.7954 63.0449 23.9381 62.9725 24.1235 62.9725C24.278 62.9725 24.3931 63.0177 24.4686 63.1082C24.5442 63.1978 24.5819 63.333 24.5819 63.5139V64.4243H24.1999V63.5153C24.1999 63.4345 24.1841 63.3756 24.1524 63.3387C24.1208 63.301 24.0651 63.2821 23.9851 63.2821C23.871 63.2821 23.7919 63.3365 23.748 63.4454L23.7493 64.4243H23.3686V63.5166C23.3686 63.434 23.3523 63.3743 23.3198 63.3374C23.2873 63.3005 23.232 63.2821 23.1538 63.2821C23.0458 63.2821 22.9676 63.3269 22.9193 63.4165V64.4243H22.5386V62.9988H22.8956Z" fill="white"/>
<path d="M26.0034 62.6484V62.9988H26.2472V63.2781H26.0034V63.9895C26.0034 64.0422 26.0135 64.08 26.0337 64.1028C26.0539 64.1257 26.0926 64.1371 26.1497 64.1371C26.1918 64.1371 26.2292 64.134 26.2616 64.1279V64.4164C26.187 64.4392 26.1101 64.4506 26.0311 64.4506C25.7641 64.4506 25.628 64.3158 25.6227 64.0462V63.2781H25.4145V62.9988H25.6227V62.6484H26.0034Z" fill="white"/>
<path d="M26.8308 63.1543C26.9318 63.0331 27.0587 62.9725 27.2115 62.9725C27.5207 62.9725 27.6774 63.1521 27.6818 63.5113V64.4243H27.3011V63.5218C27.3011 63.4402 27.2835 63.38 27.2484 63.3414C27.2133 63.3018 27.1549 63.2821 27.0732 63.2821C26.9616 63.2821 26.8808 63.3251 26.8308 63.4112V64.4243H26.45V62.4007H26.8308V63.1543Z" fill="white"/>
<path d="M28.6251 64.4506C28.4161 64.4506 28.2457 64.3865 28.1139 64.2583C27.9831 64.1301 27.9177 63.9592 27.9177 63.7458V63.7089C27.9177 63.5658 27.9453 63.438 28.0006 63.3256C28.056 63.2123 28.1341 63.1253 28.2352 63.0647C28.337 63.0032 28.453 62.9725 28.583 62.9725C28.7779 62.9725 28.9312 63.034 29.0427 63.1569C29.1552 63.2799 29.2114 63.4542 29.2114 63.6799V63.8354H28.3037C28.316 63.9285 28.3528 64.0031 28.4143 64.0594C28.4767 64.1156 28.5553 64.1437 28.6501 64.1437C28.7968 64.1437 28.9114 64.0905 28.994 63.9843L29.1811 64.1937C29.124 64.2745 29.0467 64.3378 28.9492 64.3834C28.8517 64.4282 28.7437 64.4506 28.6251 64.4506ZM28.5816 63.2808C28.5061 63.2808 28.4446 63.3062 28.3972 63.3572C28.3506 63.4081 28.3208 63.481 28.3076 63.5759H28.8372V63.5456C28.8355 63.4612 28.8126 63.3963 28.7687 63.3506C28.7248 63.304 28.6624 63.2808 28.5816 63.2808Z" fill="white"/>
<path d="M31.6855 64.4243H31.2903L30.5209 63.1622V64.4243H30.1257V62.5061H30.5209L31.2916 63.7708V62.5061H31.6855V64.4243Z" fill="white"/>
<path d="M31.9463 63.6984C31.9463 63.557 31.9736 63.4309 32.028 63.3203C32.0825 63.2096 32.1606 63.124 32.2625 63.0634C32.3653 63.0028 32.4843 62.9725 32.6195 62.9725C32.8119 62.9725 32.9687 63.0313 33.0899 63.149C33.2119 63.2667 33.28 63.4266 33.2941 63.6286L33.2967 63.726C33.2967 63.9447 33.2357 64.1204 33.1136 64.253C32.9915 64.3848 32.8277 64.4506 32.6222 64.4506C32.4167 64.4506 32.2524 64.3848 32.1295 64.253C32.0074 64.1213 31.9463 63.9421 31.9463 63.7155V63.6984ZM32.3271 63.726C32.3271 63.8613 32.3525 63.9649 32.4035 64.037C32.4544 64.1081 32.5273 64.1437 32.6222 64.1437C32.7144 64.1437 32.7864 64.1085 32.8382 64.0383C32.8901 63.9671 32.916 63.8538 32.916 63.6984C32.916 63.5658 32.8901 63.463 32.8382 63.3901C32.7864 63.3172 32.7135 63.2808 32.6195 63.2808C32.5264 63.2808 32.4544 63.3172 32.4035 63.3901C32.3525 63.4621 32.3271 63.5741 32.3271 63.726Z" fill="white"/>
<path d="M34.3849 64.2794C34.2909 64.3935 34.1609 64.4506 33.9949 64.4506C33.8421 64.4506 33.7253 64.4067 33.6445 64.3189C33.5646 64.2311 33.5237 64.1024 33.522 63.9329V62.9988H33.9027V63.9197C33.9027 64.0681 33.9703 64.1424 34.1056 64.1424C34.2347 64.1424 34.3234 64.0976 34.3717 64.008V62.9988H34.7538V64.4243H34.3954L34.3849 64.2794Z" fill="white"/>
<path d="M35.3914 62.9988L35.4033 63.1635C35.5051 63.0362 35.6417 62.9725 35.813 62.9725C35.964 62.9725 36.0765 63.0168 36.1502 63.1055C36.224 63.1942 36.2618 63.3269 36.2635 63.5034V64.4243H35.8828V63.5126C35.8828 63.4318 35.8652 63.3734 35.8301 63.3374C35.795 63.3005 35.7366 63.2821 35.6549 63.2821C35.5477 63.2821 35.4674 63.3277 35.4138 63.4191V64.4243H35.0331V62.9988H35.3914Z" fill="white"/>
<path d="M37.6455 63.7484V64.4243H37.2503V62.5061H37.9986C38.1426 62.5061 38.2691 62.5325 38.378 62.5852C38.4878 62.6379 38.5721 62.7129 38.631 62.8104C38.6898 62.907 38.7192 63.0173 38.7192 63.1411C38.7192 63.3291 38.6547 63.4775 38.5256 63.5864C38.3973 63.6944 38.2195 63.7484 37.992 63.7484H37.6455ZM37.6455 63.4283H37.9986C38.1031 63.4283 38.1826 63.4037 38.237 63.3545C38.2924 63.3053 38.32 63.2351 38.32 63.1437C38.32 63.0498 38.2924 62.9738 38.237 62.9158C38.1817 62.8579 38.1053 62.828 38.0078 62.8262H37.6455V63.4283Z" fill="white"/>
<path d="M39.7679 63.3559C39.7161 63.3488 39.6704 63.3453 39.6309 63.3453C39.4868 63.3453 39.3924 63.3941 39.3476 63.4915V64.4243H38.9669V62.9988H39.3266L39.3371 63.1688C39.4135 63.0379 39.5193 62.9725 39.6546 62.9725C39.6967 62.9725 39.7363 62.9782 39.7732 62.9896L39.7679 63.3559Z" fill="white"/>
<path d="M39.8456 63.6984C39.8456 63.557 39.8728 63.4309 39.9273 63.3203C39.9818 63.2096 40.0599 63.124 40.1618 63.0634C40.2646 63.0028 40.3836 62.9725 40.5188 62.9725C40.7112 62.9725 40.8679 63.0313 40.9891 63.149C41.1112 63.2667 41.1793 63.4266 41.1933 63.6286L41.196 63.726C41.196 63.9447 41.1349 64.1204 41.0129 64.253C40.8908 64.3848 40.727 64.4506 40.5215 64.4506C40.3159 64.4506 40.1517 64.3848 40.0287 64.253C39.9067 64.1213 39.8456 63.9421 39.8456 63.7155V63.6984ZM40.2264 63.726C40.2264 63.8613 40.2518 63.9649 40.3028 64.037C40.3537 64.1081 40.4266 64.1437 40.5215 64.1437C40.6137 64.1437 40.6857 64.1085 40.7375 64.0383C40.7893 63.9671 40.8152 63.8538 40.8152 63.6984C40.8152 63.5658 40.7893 63.463 40.7375 63.3901C40.6857 63.3172 40.6128 63.2808 40.5188 63.2808C40.4257 63.2808 40.3537 63.3172 40.3028 63.3901C40.2518 63.4621 40.2264 63.5741 40.2264 63.726Z" fill="white"/>
<path d="M41.8336 62.9988V64.502C41.8336 64.6592 41.7919 64.7813 41.7085 64.8683C41.625 64.9561 41.5047 65 41.3475 65C41.2816 65 41.2188 64.9925 41.1591 64.9776V64.6759C41.2048 64.6838 41.2447 64.6878 41.279 64.6878C41.394 64.6878 41.4516 64.6267 41.4516 64.5046V62.9988H41.8336ZM41.4213 62.6299C41.4213 62.5729 41.4401 62.5259 41.4779 62.489C41.5166 62.4521 41.5688 62.4337 41.6347 62.4337C41.7006 62.4337 41.7524 62.4521 41.7901 62.489C41.8288 62.5259 41.8481 62.5729 41.8481 62.6299C41.8481 62.6879 41.8283 62.7353 41.7888 62.7722C41.7502 62.8091 41.6988 62.8276 41.6347 62.8276C41.5706 62.8276 41.5187 62.8091 41.4792 62.7722C41.4406 62.7353 41.4213 62.6879 41.4213 62.6299Z" fill="white"/>
<path d="M42.7874 64.4506C42.5784 64.4506 42.408 64.3865 42.2763 64.2583C42.1454 64.1301 42.08 63.9592 42.08 63.7458V63.7089C42.08 63.5658 42.1076 63.438 42.163 63.3256C42.2183 63.2123 42.2965 63.1253 42.3975 63.0647C42.4994 63.0032 42.6153 62.9725 42.7453 62.9725C42.9403 62.9725 43.0935 63.034 43.2051 63.1569C43.3175 63.2799 43.3737 63.4542 43.3737 63.6799V63.8354H42.466C42.4783 63.9285 42.5152 64.0031 42.5766 64.0594C42.639 64.1156 42.7176 64.1437 42.8125 64.1437C42.9591 64.1437 43.0737 64.0905 43.1563 63.9843L43.3434 64.1937C43.2863 64.2745 43.209 64.3378 43.1115 64.3834C43.014 64.4282 42.906 64.4506 42.7874 64.4506ZM42.744 63.2808C42.6684 63.2808 42.6069 63.3062 42.5595 63.3572C42.513 63.4081 42.4831 63.481 42.4699 63.5759H42.9995V63.5456C42.9978 63.4612 42.9749 63.3963 42.931 63.3506C42.8871 63.304 42.8248 63.2808 42.744 63.2808Z" fill="white"/>
<path d="M44.1839 64.1437C44.2542 64.1437 44.3113 64.1243 44.3552 64.0857C44.3991 64.0471 44.4219 63.9957 44.4237 63.9316H44.7807C44.7798 64.0282 44.7535 64.1169 44.7016 64.1977C44.6498 64.2776 44.5787 64.34 44.4882 64.3848C44.3986 64.4287 44.2994 64.4506 44.1905 64.4506C43.9867 64.4506 43.826 64.3861 43.7083 64.257C43.5906 64.127 43.5318 63.9478 43.5318 63.7195V63.6944C43.5318 63.4749 43.5902 63.2996 43.707 63.1688C43.8238 63.0379 43.9841 62.9725 44.1879 62.9725C44.3661 62.9725 44.5089 63.0234 44.616 63.1253C44.724 63.2263 44.7789 63.3611 44.7807 63.5298H44.4237C44.4219 63.456 44.3991 63.3963 44.3552 63.3506C44.3113 63.304 44.2533 63.2808 44.1813 63.2808C44.0926 63.2808 44.0254 63.3133 43.9797 63.3782C43.9349 63.4424 43.9125 63.5469 43.9125 63.6918V63.7313C43.9125 63.878 43.9349 63.9834 43.9797 64.0475C44.0245 64.1116 44.0926 64.1437 44.1839 64.1437Z" fill="white"/>
<path d="M45.4539 62.6484V62.9988H45.6976V63.2781H45.4539V63.9895C45.4539 64.0422 45.464 64.08 45.4842 64.1028C45.5044 64.1257 45.543 64.1371 45.6001 64.1371C45.6423 64.1371 45.6796 64.134 45.7121 64.1279V64.4164C45.6375 64.4392 45.5606 64.4506 45.4816 64.4506C45.2146 64.4506 45.0784 64.3158 45.0732 64.0462V63.2781H44.865V62.9988H45.0732V62.6484H45.4539Z" fill="white"/>
<defs>
<filter id="filter0_d" x="0" y="0" width="77" height="77" filterUnits="userSpaceOnUse" color-interpolation-filters="sRGB">
<feFlood flood-opacity="0" result="BackgroundImageFix"/>
<feColorMatrix in="SourceAlpha" type="matrix" values="0 0 0 0 0 0 0 0 0 0 0 0 0 0 0 0 0 0 127 0"/>
<feOffset dx="-5" dy="5"/>
<feGaussianBlur stdDeviation="1"/>
<feColorMatrix type="matrix" values="0 0 0 0 0 0 0 0 0 0 0 0 0 0 0 0 0 0 0.25 0"/>
<feBlend mode="normal" in2="BackgroundImageFix" result="effect1_dropShadow"/>
<feBlend mode="normal" in="SourceGraphic" in2="effect1_dropShadow" result="shape"/>
</filter>
</defs>
</svg>
