<svg width="77" height="77" viewBox="0 0 77 77" fill="none" xmlns="http://www.w3.org/2000/svg">
<g filter="url(#filter0_d)">
<rect x="7" width="70" height="70" rx="10" fill="#880D0D"/>
</g>
<path d="M41.1325 10.0392C41.239 10.1624 41.3897 10.2256 41.5404 10.2256C41.6657 10.2256 41.7921 10.1818 41.8942 10.0932C42.1195 9.89768 42.1438 9.55625 41.9483 9.33098L41.4053 8.7054C41.2103 8.47959 40.8689 8.45582 40.6436 8.65138C40.4184 8.84694 40.394 9.18836 40.5896 9.41364L41.1325 10.0392Z" fill="white"/>
<path d="M51.3741 9.72643C51.4805 9.8496 51.6313 9.9128 51.782 9.9128C51.9073 9.9128 52.0337 9.86904 52.1358 9.78045C52.3611 9.58489 52.3854 9.24347 52.1898 9.01819L51.6469 8.39261C51.4519 8.16734 51.1105 8.14357 50.8852 8.33859C50.6599 8.53415 50.6356 8.87557 50.8312 9.10085L51.3741 9.72643Z" fill="white"/>
<path d="M43.3977 13.5674C43.462 13.5674 43.5273 13.5561 43.5911 13.5312L44.3642 13.2346C44.6429 13.1277 44.7817 12.8154 44.6748 12.5367C44.5684 12.2585 44.2561 12.1191 43.9768 12.226L43.2037 12.5226C42.925 12.6296 42.7862 12.9418 42.8931 13.2206C42.9758 13.4356 43.1805 13.5674 43.3977 13.5674Z" fill="white"/>
<path d="M33.8811 10.5222C33.9454 10.5222 34.0107 10.5108 34.0745 10.486L34.8476 10.1894C35.1263 10.0824 35.2651 9.77018 35.1582 9.49143C35.0518 9.21321 34.7401 9.07329 34.4602 9.1808L33.6872 9.47738C33.4084 9.58435 33.2696 9.8966 33.3765 10.1754C33.4592 10.3898 33.6634 10.5222 33.8811 10.5222Z" fill="white"/>
<path d="M46.2571 10.3742C46.3214 10.3742 46.3868 10.3628 46.4505 10.338L47.2241 10.0414C47.5029 9.93441 47.6417 9.62216 47.5347 9.34341C47.4283 9.06465 47.1161 8.92581 46.8368 9.03224L46.0632 9.32882C45.7844 9.43578 45.6456 9.74803 45.7525 10.0268C45.8352 10.2418 46.0399 10.3742 46.2571 10.3742Z" fill="white"/>
<path d="M55.5803 11.4011C55.6446 11.4011 55.7099 11.3898 55.7737 11.3649L56.5468 11.0683C56.8255 10.9614 56.9644 10.6491 56.8574 10.3704C56.751 10.0922 56.4393 9.95224 56.1594 10.0597L55.3864 10.3563C55.1076 10.4633 54.9688 10.7755 55.0757 11.0543C55.1584 11.2688 55.3626 11.4011 55.5803 11.4011Z" fill="white"/>
<path d="M36.9982 12.5745L37.8172 12.695C37.8442 12.6987 37.8707 12.7009 37.896 12.7009C38.1597 12.7009 38.3903 12.508 38.4298 12.2396C38.473 11.9446 38.2688 11.6696 37.9738 11.6264L37.1549 11.5059C36.8518 11.46 36.5849 11.6669 36.5417 11.9619C36.499 12.2568 36.7032 12.5313 36.9982 12.5745Z" fill="white"/>
<path d="M49.6 12.5145L50.4195 12.635C50.4465 12.6388 50.473 12.6409 50.4984 12.6409C50.762 12.6409 50.9927 12.4481 51.0321 12.179C51.0754 11.8841 50.8712 11.6096 50.5762 11.5664L49.7567 11.446C49.4541 11.4011 49.1867 11.6064 49.1435 11.9019C49.1014 12.1969 49.3056 12.4713 49.6 12.5145Z" fill="white"/>
<path d="M26.6302 31.2025C25.0409 32.6903 25.2872 34.5741 25.3007 34.6664C25.3396 34.9317 25.567 35.1283 25.835 35.1283C26.5081 35.1283 26.9565 35.2315 27.3411 35.3828V38.9493C26.8236 39.1174 26.3568 39.4247 25.9965 39.8504C25.4331 40.5155 25.1921 41.3901 25.3353 42.2496L25.6654 44.2311C26.0511 46.5406 28.0299 48.2169 30.3707 48.2169H59.7103C62.0516 48.2169 64.0305 46.5406 64.4151 44.2317L64.7452 42.2501C64.8889 41.3906 64.6474 40.516 64.084 39.851C63.7512 39.4582 63.3271 39.1676 62.8571 38.9926V35.3412C63.2169 35.2142 63.6388 35.1289 64.2455 35.1289C64.5415 35.1289 64.7825 34.8906 64.7857 34.5946C64.7868 34.5114 64.7846 32.7832 63.3855 31.2198C64.837 30.8768 65.9224 29.5732 65.9224 28.0179V27.1589C65.9224 25.3989 64.5334 23.9613 62.795 23.8738V20.6595C63.4552 20.492 64.0472 20.116 64.481 19.5672C65.0801 18.8098 65.2968 17.8363 65.0747 16.8968L64.9521 16.3809C63.3666 9.67997 57.45 5 50.5643 5H39.379C32.2809 5 26.1721 10.0619 24.8518 17.0357C24.6773 17.9578 24.9204 18.9005 25.519 19.6228C25.9744 20.1728 26.5945 20.5428 27.2785 20.6887V23.8749C25.5433 23.9662 24.1587 25.4021 24.1587 27.1595V28.0184C24.1587 29.5494 25.2116 30.8362 26.6302 31.2025ZM61.6751 38.8343H57.7941C55.7224 38.8343 53.7743 39.6414 52.3087 41.1065L50.2753 43.1399L48.2419 41.1065C46.7763 39.6414 44.8287 38.8343 42.757 38.8343H28.4216V35.9041C28.9505 36.1504 29.6014 36.3681 30.6343 36.3681C31.9655 36.3681 32.665 36.0067 33.282 35.688C33.8633 35.3876 34.3651 35.1283 35.4337 35.1283C36.5023 35.1283 37.0036 35.3876 37.5849 35.688C38.2024 36.0067 38.9014 36.3681 40.2325 36.3681C41.5636 36.3681 42.2638 36.0067 42.8807 35.688C43.462 35.3876 43.9644 35.1283 45.033 35.1283C46.1021 35.1283 46.605 35.3876 47.1863 35.688C47.8038 36.0067 48.5034 36.3681 49.835 36.3681C51.1667 36.3681 51.8663 36.0067 52.4832 35.688C53.0645 35.3876 53.5669 35.1283 54.6354 35.1283C55.7051 35.1283 56.208 35.3876 56.7899 35.6885C57.4079 36.0073 58.1075 36.3687 59.4397 36.3687C60.5531 36.3687 61.2235 36.1159 61.7745 35.8468V38.8143C61.7416 38.817 61.7081 38.8245 61.6751 38.8343ZM63.6799 42.0718L63.3498 44.0534C63.0521 45.8404 61.5217 47.1364 59.7103 47.1364H30.3707C28.5599 47.1364 27.0294 45.8399 26.7318 44.0539L26.4017 42.0724C26.3109 41.5268 26.4638 40.9714 26.8214 40.5489C27.1175 40.1994 27.5286 39.9828 27.9743 39.9153H42.757C44.5403 39.9153 46.2166 40.61 47.478 41.8709L49.8934 44.2862C49.9987 44.3916 50.137 44.4445 50.2753 44.4445C50.4136 44.4445 50.5519 44.3916 50.6572 44.2862L53.0726 41.8709C54.334 40.61 56.0109 39.9153 57.7941 39.9153H62.1073C62.5535 39.9828 62.9641 40.1994 63.2607 40.5489C63.6178 40.9709 63.7706 41.5262 63.6799 42.0718ZM61.5962 34.7286C61.0144 35.0289 60.512 35.2882 59.4424 35.2882C58.3727 35.2882 57.8703 35.0289 57.2885 34.7286C56.6705 34.4098 55.9709 34.0484 54.6381 34.0484C53.3065 34.0484 52.6069 34.4098 51.99 34.7286C51.4087 35.0289 50.9063 35.2882 49.8377 35.2882C48.7686 35.2882 48.2662 35.0289 47.6849 34.7286C47.0674 34.4098 46.3678 34.0484 45.0357 34.0484C43.704 34.0484 43.0044 34.4098 42.3875 34.7286C41.8062 35.0289 41.3038 35.2882 40.2352 35.2882C39.1667 35.2882 38.6648 35.0289 38.0835 34.7286C37.466 34.4098 36.767 34.0484 35.4364 34.0484C34.1058 34.0484 33.4057 34.4098 32.7888 34.7286C32.2075 35.0289 31.7056 35.2882 30.637 35.2882C29.5685 35.2882 29.0666 35.0289 28.4853 34.7286C27.9559 34.4552 27.366 34.15 26.3682 34.069C26.4146 33.4277 26.708 32.2349 28.1498 31.4224C28.2012 31.3932 28.2411 31.3527 28.2784 31.3111H61.9301C61.949 31.3316 61.9614 31.357 61.9841 31.3749C63.1542 32.304 63.5308 33.4336 63.6518 34.0749C62.6902 34.1635 62.1138 34.4612 61.5962 34.7286ZM28.3589 23.8441V20.7584H61.7145V23.8441H47.2014C45.2447 23.8441 43.4053 24.6064 42.0207 25.9899L39.8614 28.1497L37.7016 25.9899C36.3175 24.6058 34.478 23.8441 32.5208 23.8441H28.3589ZM25.9133 17.2361C27.1369 10.7718 32.8001 6.07991 39.379 6.07991H50.5649C56.9476 6.07991 62.432 10.4179 63.9014 16.6294L64.0235 17.1448C64.1699 17.7612 64.0278 18.3997 63.6345 18.8962C63.2412 19.3932 62.6529 19.6779 62.0198 19.6779H27.937C27.3217 19.6779 26.7442 19.4062 26.3514 18.9324C25.9587 18.4586 25.7988 17.8406 25.9133 17.2361ZM25.2391 27.1584C25.2391 25.938 26.2321 24.9456 27.4524 24.9456H27.9008C27.9375 24.9456 27.9694 24.9316 28.004 24.9246H32.5213C34.1901 24.9246 35.7584 25.5745 36.9382 26.7538L39.48 29.2955C39.5815 29.3971 39.7182 29.4538 39.8619 29.4538C40.0056 29.4538 40.1428 29.3971 40.2439 29.2955L42.7851 26.7538C43.9655 25.5739 45.5337 24.9246 47.202 24.9246H62.2548C62.3083 24.9246 62.3569 24.9084 62.4055 24.8943C62.4741 24.9256 62.5487 24.9456 62.6291 24.9456C63.8495 24.9456 64.8424 25.938 64.8424 27.1584V28.0174C64.8424 29.2372 63.8495 30.2301 62.6291 30.2301H27.4519C26.2315 30.2301 25.2386 29.2377 25.2386 28.0174L25.2391 27.1584Z" fill="white"/>
<path d="M19.6407 61.0828C19.6258 61.2895 19.5493 61.4521 19.4112 61.5708C19.2741 61.6895 19.0929 61.7489 18.8678 61.7489C18.6216 61.7489 18.4278 61.6662 18.2862 61.5009C18.1455 61.3348 18.0752 61.107 18.0752 60.8177V60.7004C18.0752 60.5157 18.1077 60.353 18.1728 60.2124C18.2378 60.0717 18.3306 59.964 18.4511 59.8892C18.5724 59.8136 18.7131 59.7758 18.8731 59.7758C19.0947 59.7758 19.2732 59.8352 19.4086 59.9539C19.544 60.0726 19.6223 60.2392 19.6434 60.4537H19.2477C19.238 60.3297 19.2033 60.2401 19.1435 60.1847C19.0846 60.1284 18.9945 60.1003 18.8731 60.1003C18.7412 60.1003 18.6423 60.1477 18.5764 60.2427C18.5113 60.3368 18.4779 60.4832 18.4761 60.6819V60.827C18.4761 61.0345 18.5073 61.1862 18.5698 61.282C18.6331 61.3778 18.7324 61.4258 18.8678 61.4258C18.9901 61.4258 19.0811 61.3981 19.1409 61.3427C19.2015 61.2864 19.2363 61.1998 19.245 61.0828H19.6407Z" fill="white"/>
<path d="M20.6774 60.6529C20.6255 60.6458 20.5798 60.6423 20.5402 60.6423C20.396 60.6423 20.3015 60.6911 20.2567 60.7887V61.7225H19.8755V60.2955H20.2355L20.2461 60.4656C20.3226 60.3346 20.4285 60.2691 20.564 60.2691C20.6062 60.2691 20.6457 60.2748 20.6827 60.2862L20.6774 60.6529Z" fill="white"/>
<path d="M21.4925 61.7489C21.2832 61.7489 21.1126 61.6847 20.9807 61.5563C20.8497 61.428 20.7842 61.2569 20.7842 61.0433V61.0063C20.7842 60.863 20.8119 60.7351 20.8673 60.6225C20.9227 60.5091 21.001 60.4221 21.1021 60.3614C21.2041 60.2998 21.3201 60.2691 21.4503 60.2691C21.6455 60.2691 21.7989 60.3306 21.9106 60.4537C22.0231 60.5768 22.0794 60.7514 22.0794 60.9773V61.133H21.1707C21.183 61.2262 21.2199 61.3009 21.2814 61.3572C21.3439 61.4134 21.4226 61.4416 21.5175 61.4416C21.6644 61.4416 21.7791 61.3884 21.8618 61.282L22.049 61.4917C21.9919 61.5726 21.9145 61.6359 21.8169 61.6816C21.7193 61.7265 21.6112 61.7489 21.4925 61.7489ZM21.4489 60.5777C21.3733 60.5777 21.3118 60.6032 21.2643 60.6542C21.2177 60.7052 21.1878 60.7782 21.1746 60.8731H21.7048V60.8428C21.7031 60.7584 21.6802 60.6933 21.6362 60.6476C21.5923 60.601 21.5298 60.5777 21.4489 60.5777Z" fill="white"/>
<path d="M23.124 61.7225C23.1064 61.6882 23.0936 61.6456 23.0857 61.5946C22.9934 61.6975 22.8734 61.7489 22.7256 61.7489C22.5858 61.7489 22.4698 61.7084 22.3775 61.6275C22.286 61.5467 22.2403 61.4447 22.2403 61.3216C22.2403 61.1703 22.2961 61.0543 22.4078 60.9734C22.5203 60.8925 22.6826 60.8516 22.8945 60.8507H23.0699V60.7689C23.0699 60.703 23.0527 60.6502 23.0184 60.6107C22.985 60.5711 22.9318 60.5513 22.8589 60.5513C22.7947 60.5513 22.7441 60.5667 22.7072 60.5975C22.6711 60.6283 22.6531 60.6705 22.6531 60.7241H22.2719C22.2719 60.6414 22.2974 60.5649 22.3484 60.4946C22.3994 60.4243 22.4715 60.3693 22.5647 60.3297C22.6579 60.2893 22.7626 60.2691 22.8786 60.2691C23.0545 60.2691 23.1939 60.3135 23.2967 60.4023C23.4005 60.4902 23.4524 60.6142 23.4524 60.7742V61.3928C23.4532 61.5282 23.4721 61.6306 23.5091 61.7001V61.7225H23.124ZM22.8087 61.4574C22.865 61.4574 22.9169 61.4451 22.9644 61.4205C23.0118 61.395 23.047 61.3611 23.0699 61.3189V61.0736H22.9274C22.7366 61.0736 22.6351 61.1396 22.6228 61.2714L22.6215 61.2939C22.6215 61.3413 22.6382 61.3805 22.6716 61.4112C22.705 61.442 22.7507 61.4574 22.8087 61.4574Z" fill="white"/>
<path d="M24.2015 59.9446V60.2955H24.4455V60.5751H24.2015V61.2873C24.2015 61.34 24.2116 61.3778 24.2318 61.4007C24.2521 61.4236 24.2908 61.435 24.3479 61.435C24.3901 61.435 24.4275 61.4319 24.46 61.4258V61.7146C24.3853 61.7375 24.3083 61.7489 24.2292 61.7489C23.9619 61.7489 23.8256 61.6139 23.8203 61.344V60.5751H23.612V60.2955H23.8203V59.9446H24.2015Z" fill="white"/>
<path d="M25.3147 61.7489C25.1054 61.7489 24.9348 61.6847 24.8029 61.5563C24.6719 61.428 24.6064 61.2569 24.6064 61.0433V61.0063C24.6064 60.863 24.6341 60.7351 24.6895 60.6225C24.7449 60.5091 24.8232 60.4221 24.9243 60.3614C25.0263 60.2998 25.1423 60.2691 25.2725 60.2691C25.4677 60.2691 25.6211 60.3306 25.7328 60.4537C25.8453 60.5768 25.9016 60.7514 25.9016 60.9773V61.133H24.9928C25.0052 61.2262 25.0421 61.3009 25.1036 61.3572C25.1661 61.4134 25.2448 61.4416 25.3397 61.4416C25.4866 61.4416 25.6013 61.3884 25.684 61.282L25.8712 61.4917C25.8141 61.5726 25.7367 61.6359 25.6391 61.6816C25.5415 61.7265 25.4334 61.7489 25.3147 61.7489ZM25.2711 60.5777C25.1955 60.5777 25.134 60.6032 25.0865 60.6542C25.0399 60.7052 25.01 60.7782 24.9968 60.8731H25.527V60.8428C25.5252 60.7584 25.5024 60.6933 25.4584 60.6476C25.4145 60.601 25.352 60.5777 25.2711 60.5777Z" fill="white"/>
<path d="M26.0598 60.9984C26.0598 60.776 26.1095 60.5988 26.2089 60.4669C26.3091 60.335 26.4458 60.2691 26.6191 60.2691C26.758 60.2691 26.8727 60.321 26.9633 60.4247V59.6967H27.3458V61.7225H27.0015L26.9831 61.5708C26.8881 61.6895 26.7659 61.7489 26.6164 61.7489C26.4485 61.7489 26.3135 61.6829 26.2115 61.5511C26.1104 61.4183 26.0598 61.2341 26.0598 60.9984ZM26.441 61.0261C26.441 61.1598 26.4643 61.2622 26.5109 61.3334C26.5575 61.4047 26.6252 61.4403 26.714 61.4403C26.8318 61.4403 26.9149 61.3906 26.9633 61.2912V60.7281C26.9158 60.6287 26.8336 60.579 26.7167 60.579C26.5329 60.579 26.441 60.7281 26.441 61.0261Z" fill="white"/>
<path d="M29.5998 61.0222C29.5998 61.2508 29.551 61.4293 29.4534 61.5576C29.3558 61.6851 29.2195 61.7489 29.0445 61.7489C28.8898 61.7489 28.7662 61.6895 28.6739 61.5708L28.6568 61.7225H28.3139V59.6967H28.695V60.4234C28.783 60.3205 28.8986 60.2691 29.0419 60.2691C29.216 60.2691 29.3523 60.3333 29.4508 60.4616C29.5501 60.5891 29.5998 60.7689 29.5998 61.0011V61.0222ZM29.2186 60.9945C29.2186 60.8503 29.1958 60.7452 29.15 60.6793C29.1043 60.6124 29.0362 60.579 28.9456 60.579C28.8243 60.579 28.7407 60.6287 28.695 60.7281V61.2912C28.7416 61.3915 28.826 61.4416 28.9483 61.4416C29.0714 61.4416 29.1522 61.3809 29.1909 61.2596C29.2094 61.2015 29.2186 61.1132 29.2186 60.9945Z" fill="white"/>
<path d="M30.3529 61.1831L30.6167 60.2955H31.0255L30.4518 61.9441L30.4202 62.0193C30.3349 62.2057 30.1942 62.2989 29.9981 62.2989C29.9427 62.2989 29.8864 62.2905 29.8293 62.2738V61.985L29.8873 61.9863C29.9594 61.9863 30.0131 61.9753 30.0482 61.9533C30.0843 61.9313 30.1124 61.8948 30.1326 61.8439L30.1775 61.7265L29.6776 60.2955H30.0878L30.3529 61.1831Z" fill="white"/>
<path d="M32.3906 59.8022L32.8839 61.1949L33.3745 59.8022H33.8942V61.7225H33.4972V61.1976L33.5367 60.2915L33.0184 61.7225H32.7467L32.2297 60.2928L32.2693 61.1976V61.7225H31.8736V59.8022H32.3906Z" fill="white"/>
<path d="M35.0416 61.7225C35.024 61.6882 35.0113 61.6456 35.0034 61.5946C34.911 61.6975 34.791 61.7489 34.6433 61.7489C34.5035 61.7489 34.3874 61.7084 34.2951 61.6275C34.2037 61.5467 34.1579 61.4447 34.1579 61.3216C34.1579 61.1703 34.2138 61.0543 34.3254 60.9734C34.438 60.8925 34.6002 60.8516 34.8121 60.8507H34.9875V60.7689C34.9875 60.703 34.9704 60.6502 34.9361 60.6107C34.9027 60.5711 34.8495 60.5513 34.7765 60.5513C34.7123 60.5513 34.6618 60.5667 34.6248 60.5975C34.5888 60.6283 34.5708 60.6705 34.5708 60.7241H34.1896C34.1896 60.6414 34.2151 60.5649 34.2661 60.4946C34.3171 60.4243 34.3892 60.3693 34.4824 60.3297C34.5756 60.2893 34.6802 60.2691 34.7963 60.2691C34.9721 60.2691 35.1115 60.3135 35.2144 60.4023C35.3181 60.4902 35.37 60.6142 35.37 60.7742V61.3928C35.3709 61.5282 35.3898 61.6306 35.4267 61.7001V61.7225H35.0416ZM34.7264 61.4574C34.7827 61.4574 34.8345 61.4451 34.882 61.4205C34.9295 61.395 34.9647 61.3611 34.9875 61.3189V61.0736H34.8451C34.6543 61.0736 34.5527 61.1396 34.5404 61.2714L34.5391 61.2939C34.5391 61.3413 34.5558 61.3805 34.5892 61.4112C34.6226 61.442 34.6684 61.4574 34.7264 61.4574Z" fill="white"/>
<path d="M35.6035 60.9984C35.6035 60.776 35.6531 60.5988 35.7525 60.4669C35.8527 60.335 35.9895 60.2691 36.1627 60.2691C36.3016 60.2691 36.4164 60.321 36.5069 60.4247V59.6967H36.8894V61.7225H36.5452L36.5267 61.5708C36.4317 61.6895 36.3095 61.7489 36.16 61.7489C35.9921 61.7489 35.8571 61.6829 35.7551 61.5511C35.654 61.4183 35.6035 61.2341 35.6035 60.9984ZM35.9846 61.0261C35.9846 61.1598 36.0079 61.2622 36.0545 61.3334C36.1011 61.4047 36.1688 61.4403 36.2576 61.4403C36.3755 61.4403 36.4586 61.3906 36.5069 61.2912V60.7281C36.4594 60.6287 36.3772 60.579 36.2603 60.579C36.0765 60.579 35.9846 60.7281 35.9846 61.0261Z" fill="white"/>
<path d="M37.8417 61.7489C37.6324 61.7489 37.4618 61.6847 37.3299 61.5563C37.1989 61.428 37.1334 61.2569 37.1334 61.0433V61.0063C37.1334 60.863 37.1611 60.7351 37.2165 60.6225C37.2719 60.5091 37.3501 60.4221 37.4513 60.3614C37.5532 60.2998 37.6693 60.2691 37.7994 60.2691C37.9946 60.2691 38.1481 60.3306 38.2597 60.4537C38.3723 60.5768 38.4286 60.7514 38.4286 60.9773V61.133H37.5198C37.5321 61.2262 37.5691 61.3009 37.6306 61.3572C37.6931 61.4134 37.7717 61.4416 37.8667 61.4416C38.0135 61.4416 38.1283 61.3884 38.2109 61.282L38.3982 61.4917C38.3411 61.5726 38.2637 61.6359 38.1661 61.6816C38.0685 61.7265 37.9604 61.7489 37.8417 61.7489ZM37.7981 60.5777C37.7225 60.5777 37.661 60.6032 37.6135 60.6542C37.5669 60.7052 37.537 60.7782 37.5238 60.8731H38.054V60.8428C38.0522 60.7584 38.0294 60.6933 37.9854 60.6476C37.9414 60.601 37.879 60.5777 37.7981 60.5777Z" fill="white"/>
<path d="M40.6048 61.0222C40.6048 61.2508 40.556 61.4293 40.4584 61.5576C40.3608 61.6851 40.2245 61.7489 40.0495 61.7489C39.8948 61.7489 39.7712 61.6895 39.6789 61.5708L39.6617 61.7225H39.3188V59.6967H39.7V60.4234C39.7879 60.3205 39.9035 60.2691 40.0469 60.2691C40.221 60.2691 40.3572 60.3333 40.4557 60.4616C40.5551 60.5891 40.6048 60.7689 40.6048 61.0011V61.0222ZM40.2236 60.9945C40.2236 60.8503 40.2007 60.7452 40.155 60.6793C40.1093 60.6124 40.0411 60.579 39.9506 60.579C39.8292 60.579 39.7457 60.6287 39.7 60.7281V61.2912C39.7466 61.3915 39.831 61.4416 39.9532 61.4416C40.0763 61.4416 40.1572 61.3809 40.1959 61.2596C40.2144 61.2015 40.2236 61.1132 40.2236 60.9945Z" fill="white"/>
<path d="M41.3579 61.1831L41.6216 60.2955H42.0305L41.4568 61.9441L41.4251 62.0193C41.3398 62.2057 41.1992 62.2989 41.0031 62.2989C40.9477 62.2989 40.8914 62.2905 40.8343 62.2738V61.985L40.8923 61.9863C40.9644 61.9863 41.018 61.9753 41.0532 61.9533C41.0892 61.9313 41.1174 61.8948 41.1376 61.8439L41.1824 61.7265L40.6826 60.2955H41.0928L41.3579 61.1831Z" fill="white"/>
<path d="M43.3956 59.8022L43.8888 61.1949L44.3795 59.8022H44.8991V61.7225H44.5021V61.1976L44.5417 60.2915L44.0234 61.7225H43.7517L43.2347 60.2928L43.2742 61.1976V61.7225H42.8786V59.8022H43.3956Z" fill="white"/>
<path d="M46.0466 61.7225C46.029 61.6882 46.0162 61.6456 46.0083 61.5946C45.916 61.6975 45.796 61.7489 45.6483 61.7489C45.5085 61.7489 45.3924 61.7084 45.3001 61.6275C45.2086 61.5467 45.1629 61.4447 45.1629 61.3216C45.1629 61.1703 45.2187 61.0543 45.3304 60.9734C45.443 60.8925 45.6052 60.8516 45.8171 60.8507H45.9925V60.7689C45.9925 60.703 45.9754 60.6502 45.9411 60.6107C45.9077 60.5711 45.8545 60.5513 45.7815 60.5513C45.7173 60.5513 45.6667 60.5667 45.6298 60.5975C45.5938 60.6283 45.5757 60.6705 45.5757 60.7241H45.1946C45.1946 60.6414 45.2201 60.5649 45.2711 60.4946C45.3221 60.4243 45.3942 60.3693 45.4874 60.3297C45.5806 60.2893 45.6852 60.2691 45.8013 60.2691C45.9771 60.2691 46.1165 60.3135 46.2194 60.4023C46.3231 60.4902 46.375 60.6142 46.375 60.7742V61.3928C46.3759 61.5282 46.3948 61.6306 46.4317 61.7001V61.7225H46.0466ZM45.7314 61.4574C45.7876 61.4574 45.8395 61.4451 45.887 61.4205C45.9345 61.395 45.9696 61.3611 45.9925 61.3189V61.0736H45.8501C45.6593 61.0736 45.5577 61.1396 45.5454 61.2714L45.5441 61.2939C45.5441 61.3413 45.5608 61.3805 45.5942 61.4112C45.6276 61.442 45.6733 61.4574 45.7314 61.4574Z" fill="white"/>
<path d="M46.6084 60.9984C46.6084 60.776 46.6581 60.5988 46.7575 60.4669C46.8577 60.335 46.9944 60.2691 47.1676 60.2691C47.3066 60.2691 47.4213 60.321 47.5119 60.4247V59.6967H47.8944V61.7225H47.5501L47.5317 61.5708C47.4367 61.6895 47.3145 61.7489 47.165 61.7489C46.9971 61.7489 46.8621 61.6829 46.7601 61.5511C46.659 61.4183 46.6084 61.2341 46.6084 60.9984ZM46.9896 61.0261C46.9896 61.1598 47.0129 61.2622 47.0595 61.3334C47.1061 61.4047 47.1738 61.4403 47.2626 61.4403C47.3804 61.4403 47.4635 61.3906 47.5119 61.2912V60.7281C47.4644 60.6287 47.3822 60.579 47.2652 60.579C47.0815 60.579 46.9896 60.7281 46.9896 61.0261Z" fill="white"/>
<path d="M48.8466 61.7489C48.6374 61.7489 48.4668 61.6847 48.3349 61.5563C48.2039 61.428 48.1384 61.2569 48.1384 61.0433V61.0063C48.1384 60.863 48.1661 60.7351 48.2215 60.6225C48.2768 60.5091 48.3551 60.4221 48.4562 60.3614C48.5582 60.2998 48.6743 60.2691 48.8044 60.2691C48.9996 60.2691 49.153 60.3306 49.2647 60.4537C49.3773 60.5768 49.4335 60.7514 49.4335 60.9773V61.133H48.5248C48.5371 61.2262 48.574 61.3009 48.6356 61.3572C48.698 61.4134 48.7767 61.4416 48.8717 61.4416C49.0185 61.4416 49.1333 61.3884 49.2159 61.282L49.4032 61.4917C49.346 61.5726 49.2687 61.6359 49.1711 61.6816C49.0735 61.7265 48.9653 61.7489 48.8466 61.7489ZM48.8031 60.5777C48.7275 60.5777 48.6659 60.6032 48.6184 60.6542C48.5718 60.7052 48.5419 60.7782 48.5288 60.8731H49.059V60.8428C49.0572 60.7584 49.0343 60.6933 48.9904 60.6476C48.9464 60.601 48.884 60.5777 48.8031 60.5777Z" fill="white"/>
<path d="M18.2123 64.4236V63.2762H18V62.9966H18.2123V62.8752C18.2123 62.7152 18.2581 62.5912 18.3495 62.5033C18.4418 62.4145 18.5706 62.3701 18.736 62.3701C18.7887 62.3701 18.8533 62.3789 18.9298 62.3965L18.9259 62.6919C18.8942 62.684 18.8555 62.68 18.8098 62.68C18.6665 62.68 18.5948 62.7473 18.5948 62.8818V62.9966H18.8784V63.2762H18.5948V64.4236H18.2123Z" fill="white"/>
<path d="M19.8781 63.354C19.8262 63.347 19.7805 63.3434 19.741 63.3434C19.5968 63.3434 19.5022 63.3922 19.4574 63.4898V64.4236H19.0762V62.9966H19.4363L19.4468 63.1667C19.5233 63.0357 19.6293 62.9702 19.7647 62.9702C19.8069 62.9702 19.8465 62.9759 19.8834 62.9873L19.8781 63.354Z" fill="white"/>
<path d="M19.9559 63.6969C19.9559 63.5554 19.9832 63.4292 20.0377 63.3184C20.0922 63.2076 20.1705 63.1219 20.2725 63.0612C20.3754 63.0005 20.4945 62.9702 20.6299 62.9702C20.8225 62.9702 20.9794 63.0291 21.1008 63.1469C21.223 63.2648 21.2911 63.4248 21.3052 63.627L21.3078 63.7246C21.3078 63.9436 21.2467 64.1194 21.1245 64.2522C21.0023 64.3841 20.8383 64.45 20.6325 64.45C20.4268 64.45 20.2624 64.3841 20.1393 64.2522C20.017 64.1203 19.9559 63.9409 19.9559 63.7141V63.6969ZM20.3371 63.7246C20.3371 63.86 20.3626 63.9638 20.4136 64.0359C20.4646 64.1071 20.5376 64.1427 20.6325 64.1427C20.7249 64.1427 20.797 64.1075 20.8488 64.0372C20.9007 63.966 20.9267 63.8525 20.9267 63.6969C20.9267 63.5641 20.9007 63.4613 20.8488 63.3883C20.797 63.3153 20.724 63.2788 20.6299 63.2788C20.5367 63.2788 20.4646 63.3153 20.4136 63.3883C20.3626 63.4604 20.3371 63.5725 20.3371 63.7246Z" fill="white"/>
<path d="M21.9 62.9966L21.9119 63.1562C22.013 63.0322 22.1497 62.9702 22.3221 62.9702C22.5058 62.9702 22.632 63.0427 22.7006 63.1878C22.8008 63.0427 22.9437 62.9702 23.1292 62.9702C23.284 62.9702 23.3992 63.0155 23.4748 63.106C23.5504 63.1957 23.5882 63.3311 23.5882 63.5123V64.4236H23.2057V63.5136C23.2057 63.4327 23.1899 63.3738 23.1582 63.3369C23.1266 63.299 23.0708 63.2801 22.9907 63.2801C22.8764 63.2801 22.7973 63.3347 22.7533 63.4437L22.7547 64.4236H22.3735V63.5149C22.3735 63.4323 22.3572 63.3725 22.3247 63.3355C22.2922 63.2986 22.2368 63.2801 22.1585 63.2801C22.0504 63.2801 21.9721 63.325 21.9238 63.4147V64.4236H21.5426V62.9966H21.9Z" fill="white"/>
<path d="M25.0113 62.6457V62.9966H25.2553V63.2762H25.0113V63.9884C25.0113 64.0412 25.0214 64.079 25.0416 64.1018C25.0619 64.1247 25.1006 64.1361 25.1577 64.1361C25.1999 64.1361 25.2373 64.133 25.2698 64.1269V64.4157C25.1951 64.4386 25.1181 64.45 25.039 64.45C24.7717 64.45 24.6354 64.315 24.6301 64.0451V63.2762H24.4218V62.9966H24.6301V62.6457H25.0113Z" fill="white"/>
<path d="M25.8396 63.1522C25.9407 63.0309 26.0678 62.9702 26.2208 62.9702C26.5303 62.9702 26.6872 63.15 26.6916 63.5096V64.4236H26.3104V63.5202C26.3104 63.4384 26.2929 63.3782 26.2577 63.3395C26.2225 63.2999 26.164 63.2801 26.0823 63.2801C25.9706 63.2801 25.8897 63.3232 25.8396 63.4094V64.4236H25.4584V62.3978H25.8396V63.1522Z" fill="white"/>
<path d="M27.6359 64.45C27.4267 64.45 27.2561 64.3858 27.1242 64.2575C26.9932 64.1291 26.9277 63.9581 26.9277 63.7444V63.7075C26.9277 63.5641 26.9554 63.4362 27.0108 63.3237C27.0662 63.2102 27.1444 63.1232 27.2455 63.0625C27.3475 63.001 27.4636 62.9702 27.5937 62.9702C27.7889 62.9702 27.9424 63.0317 28.054 63.1548C28.1666 63.2779 28.2229 63.4525 28.2229 63.6785V63.8341H27.3141C27.3264 63.9273 27.3634 64.002 27.4249 64.0583C27.4873 64.1146 27.566 64.1427 27.661 64.1427C27.8078 64.1427 27.9226 64.0895 28.0052 63.9831L28.1925 64.1928C28.1354 64.2737 28.058 64.337 27.9604 64.3827C27.8628 64.4276 27.7546 64.45 27.6359 64.45ZM27.5924 63.2788C27.5168 63.2788 27.4553 63.3043 27.4078 63.3553C27.3612 63.4063 27.3313 63.4793 27.3181 63.5743H27.8483V63.5439C27.8465 63.4595 27.8237 63.3944 27.7797 63.3487C27.7357 63.3021 27.6733 63.2788 27.5924 63.2788Z" fill="white"/>
<path d="M30.6998 64.4236H30.3041L29.5338 63.1601V64.4236H29.1382V62.5033H29.5338L30.3054 63.7695V62.5033H30.6998V64.4236Z" fill="white"/>
<path d="M30.9609 63.6969C30.9609 63.5554 30.9882 63.4292 31.0427 63.3184C31.0972 63.2076 31.1755 63.1219 31.2774 63.0612C31.3803 63.0005 31.4995 62.9702 31.6349 62.9702C31.8274 62.9702 31.9844 63.0291 32.1057 63.1469C32.2279 63.2648 32.2961 63.4248 32.3102 63.627L32.3128 63.7246C32.3128 63.9436 32.2517 64.1194 32.1295 64.2522C32.0072 64.3841 31.8433 64.45 31.6375 64.45C31.4318 64.45 31.2673 64.3841 31.1442 64.2522C31.022 64.1203 30.9609 63.9409 30.9609 63.7141V63.6969ZM31.3421 63.7246C31.3421 63.86 31.3676 63.9638 31.4186 64.0359C31.4696 64.1071 31.5425 64.1427 31.6375 64.1427C31.7298 64.1427 31.8019 64.1075 31.8538 64.0372C31.9057 63.966 31.9316 63.8525 31.9316 63.6969C31.9316 63.5641 31.9057 63.4613 31.8538 63.3883C31.8019 63.3153 31.729 63.2788 31.6349 63.2788C31.5417 63.2788 31.4696 63.3153 31.4186 63.3883C31.3676 63.4604 31.3421 63.5725 31.3421 63.7246Z" fill="white"/>
<path d="M33.4022 64.2786C33.3081 64.3929 33.178 64.45 33.0118 64.45C32.8588 64.45 32.7419 64.406 32.661 64.3181C32.581 64.2302 32.5401 64.1014 32.5383 63.9317V62.9966H32.9195V63.9185C32.9195 64.0671 32.9872 64.1414 33.1226 64.1414C33.2519 64.1414 33.3407 64.0965 33.389 64.0069V62.9966H33.7715V64.4236H33.4128L33.4022 64.2786Z" fill="white"/>
<path d="M34.4099 62.9966L34.4217 63.1614C34.5237 63.0339 34.6604 62.9702 34.8319 62.9702C34.9831 62.9702 35.0957 63.0146 35.1695 63.1034C35.2434 63.1922 35.2812 63.325 35.283 63.5017V64.4236H34.9018V63.5109C34.9018 63.4301 34.8842 63.3716 34.849 63.3355C34.8139 63.2986 34.7554 63.2801 34.6736 63.2801C34.5664 63.2801 34.4859 63.3259 34.4323 63.4173V64.4236H34.0511V62.9966H34.4099Z" fill="white"/>
<path d="M36.6665 63.747V64.4236H36.2708V62.5033H37.02C37.1642 62.5033 37.2908 62.5297 37.3998 62.5824C37.5097 62.6352 37.5941 62.7104 37.653 62.808C37.712 62.9047 37.7414 63.015 37.7414 63.139C37.7414 63.3272 37.6768 63.4758 37.5475 63.5848C37.4192 63.693 37.2411 63.747 37.0134 63.747H36.6665ZM36.6665 63.4265H37.02C37.1246 63.4265 37.2042 63.4019 37.2587 63.3527C37.3141 63.3034 37.3418 63.2331 37.3418 63.1417C37.3418 63.0476 37.3141 62.9715 37.2587 62.9135C37.2033 62.8555 37.1268 62.8256 37.0292 62.8238H36.6665V63.4265Z" fill="white"/>
<path d="M38.7913 63.354C38.7394 63.347 38.6937 63.3434 38.6541 63.3434C38.5099 63.3434 38.4154 63.3922 38.3705 63.4898V64.4236H37.9894V62.9966H38.3494L38.36 63.1667C38.4365 63.0357 38.5424 62.9702 38.6778 62.9702C38.72 62.9702 38.7596 62.9759 38.7965 62.9873L38.7913 63.354Z" fill="white"/>
<path d="M38.8691 63.6969C38.8691 63.5554 38.8963 63.4292 38.9509 63.3184C39.0054 63.2076 39.0836 63.1219 39.1856 63.0612C39.2885 63.0005 39.4076 62.9702 39.543 62.9702C39.7356 62.9702 39.8926 63.0291 40.0139 63.1469C40.1361 63.2648 40.2043 63.4248 40.2183 63.627L40.221 63.7246C40.221 63.9436 40.1599 64.1194 40.0376 64.2522C39.9154 64.3841 39.7514 64.45 39.5457 64.45C39.3399 64.45 39.1755 64.3841 39.0524 64.2522C38.9302 64.1203 38.8691 63.9409 38.8691 63.7141V63.6969ZM39.2502 63.7246C39.2502 63.86 39.2757 63.9638 39.3267 64.0359C39.3777 64.1071 39.4507 64.1427 39.5457 64.1427C39.638 64.1427 39.7101 64.1075 39.762 64.0372C39.8139 63.966 39.8398 63.8525 39.8398 63.6969C39.8398 63.5641 39.8139 63.4613 39.762 63.3883C39.7101 63.3153 39.6371 63.2788 39.543 63.2788C39.4498 63.2788 39.3777 63.3153 39.3267 63.3883C39.2757 63.4604 39.2502 63.5725 39.2502 63.7246Z" fill="white"/>
<path d="M40.8593 62.9966V64.5014C40.8593 64.6588 40.8175 64.7811 40.734 64.8681C40.6505 64.956 40.53 65 40.3726 65C40.3067 65 40.2438 64.9925 40.184 64.9776V64.6755C40.2298 64.6835 40.2698 64.6874 40.3041 64.6874C40.4192 64.6874 40.4768 64.6263 40.4768 64.5041V62.9966H40.8593ZM40.4465 62.6273C40.4465 62.5701 40.4654 62.5231 40.5032 62.4862C40.5419 62.4492 40.5942 62.4308 40.6602 62.4308C40.7261 62.4308 40.778 62.4492 40.8158 62.4862C40.8545 62.5231 40.8738 62.5701 40.8738 62.6273C40.8738 62.6853 40.854 62.7328 40.8145 62.7697C40.7758 62.8067 40.7243 62.8251 40.6602 62.8251C40.596 62.8251 40.5441 62.8067 40.5045 62.7697C40.4658 62.7328 40.4465 62.6853 40.4465 62.6273Z" fill="white"/>
<path d="M41.8142 64.45C41.6049 64.45 41.4344 64.3858 41.3025 64.2575C41.1715 64.1291 41.1059 63.9581 41.1059 63.7444V63.7075C41.1059 63.5641 41.1336 63.4362 41.189 63.3237C41.2444 63.2102 41.3227 63.1232 41.4238 63.0625C41.5258 63.001 41.6419 62.9702 41.772 62.9702C41.9672 62.9702 42.1206 63.0317 42.2323 63.1548C42.3448 63.2779 42.4011 63.4525 42.4011 63.6785V63.8341H41.4924C41.5047 63.9273 41.5416 64.002 41.6032 64.0583C41.6656 64.1146 41.7443 64.1427 41.8393 64.1427C41.9861 64.1427 42.1008 64.0895 42.1835 63.9831L42.3708 64.1928C42.3136 64.2737 42.2363 64.337 42.1387 64.3827C42.0411 64.4276 41.9329 64.45 41.8142 64.45ZM41.7707 63.2788C41.6951 63.2788 41.6335 63.3043 41.586 63.3553C41.5394 63.4063 41.5095 63.4793 41.4963 63.5743H42.0265V63.5439C42.0248 63.4595 42.0019 63.3944 41.958 63.3487C41.914 63.3021 41.8516 63.2788 41.7707 63.2788Z" fill="white"/>
<path d="M43.2122 64.1427C43.2826 64.1427 43.3397 64.1234 43.3837 64.0847C43.4277 64.046 43.4505 63.9945 43.4523 63.9304H43.8097C43.8088 64.0271 43.7825 64.1159 43.7306 64.1968C43.6787 64.2768 43.6075 64.3392 43.5169 64.3841C43.4272 64.428 43.3279 64.45 43.2188 64.45C43.0148 64.45 42.8539 64.3854 42.7361 64.2561C42.6183 64.126 42.5594 63.9466 42.5594 63.718V63.693C42.5594 63.4731 42.6179 63.2977 42.7348 63.1667C42.8517 63.0357 43.0122 62.9702 43.2162 62.9702C43.3947 62.9702 43.5376 63.0212 43.6448 63.1232C43.753 63.2243 43.8079 63.3593 43.8097 63.5281H43.4523C43.4505 63.4542 43.4277 63.3944 43.3837 63.3487C43.3397 63.3021 43.2817 63.2788 43.2096 63.2788C43.1208 63.2788 43.0535 63.3114 43.0078 63.3764C42.963 63.4406 42.9405 63.5452 42.9405 63.6903V63.7299C42.9405 63.8767 42.963 63.9822 43.0078 64.0464C43.0527 64.1106 43.1208 64.1427 43.2122 64.1427Z" fill="white"/>
<path d="M44.4837 62.6457V62.9966H44.7277V63.2762H44.4837V63.9884C44.4837 64.0412 44.4938 64.079 44.514 64.1018C44.5342 64.1247 44.5729 64.1361 44.6301 64.1361C44.6723 64.1361 44.7096 64.133 44.7422 64.1269V64.4157C44.6674 64.4386 44.5905 64.45 44.5114 64.45C44.2441 64.45 44.1078 64.315 44.1025 64.0451V63.2762H43.8941V62.9966H44.1025V62.6457H44.4837Z" fill="white"/>
<defs>
<filter id="filter0_d" x="0" y="0" width="77" height="77" filterUnits="userSpaceOnUse" color-interpolation-filters="sRGB">
<feFlood flood-opacity="0" result="BackgroundImageFix"/>
<feColorMatrix in="SourceAlpha" type="matrix" values="0 0 0 0 0 0 0 0 0 0 0 0 0 0 0 0 0 0 127 0"/>
<feOffset dx="-5" dy="5"/>
<feGaussianBlur stdDeviation="1"/>
<feColorMatrix type="matrix" values="0 0 0 0 0 0 0 0 0 0 0 0 0 0 0 0 0 0 0.25 0"/>
<feBlend mode="normal" in2="BackgroundImageFix" result="effect1_dropShadow"/>
<feBlend mode="normal" in="SourceGraphic" in2="effect1_dropShadow" result="shape"/>
</filter>
</defs>
</svg>
