<svg width="77" height="77" viewBox="0 0 77 77" fill="none" xmlns="http://www.w3.org/2000/svg">
<g filter="url(#filter0_d)">
<rect x="7" width="70" height="70" rx="10" fill="#880D0D"/>
</g>
<path d="M62.1777 19.8713C62.1858 19.7233 62.1324 19.5785 62.0303 19.4705C61.9287 19.363 61.7866 19.3019 61.6381 19.3019H60.8774V8.65761C60.8774 8.35941 60.636 8.1174 60.3372 8.1174H56.4898C56.3213 8.1174 56.1765 8.19951 56.0777 8.31998L55.6142 5.45415C55.5909 5.31262 55.5126 5.18567 55.3965 5.10193C55.2803 5.01766 55.1339 4.98363 54.9935 5.0074L51.3135 5.61244C51.0234 5.65997 50.8246 5.93116 50.8662 6.22179L51.1801 8.41505C51.0677 8.40425 50.9543 8.41937 50.856 8.47772C50.7323 8.55065 50.6426 8.66895 50.6069 8.80779L48.3607 17.5128V10.9476C48.3607 10.6494 48.1193 10.4074 47.8205 10.4074H46.7396L47.4029 7.83595C47.4775 7.54693 47.303 7.25252 47.0145 7.17797L43.2892 6.21639C43.0002 6.14238 42.7058 6.31525 42.6307 6.60426L40.4099 15.2098V8.65761C40.4099 8.35941 40.1684 8.1174 39.8697 8.1174H36.0218C35.723 8.1174 35.4816 8.35941 35.4816 8.65761V19.3025H34.809C34.661 19.3025 34.5189 19.3635 34.4168 19.471C34.3147 19.5785 34.2612 19.7233 34.2693 19.8719L35.7636 47.7063C35.7792 47.9926 36.0158 48.2173 36.3027 48.2173H60.1433C60.4302 48.2173 60.6673 47.9926 60.683 47.7063L62.1777 19.8713ZM59.797 9.19782V19.3025H57.0301V9.19782H59.797ZM55.9496 14.2936V19.3019H55.8918C55.6536 19.3019 55.4435 19.4581 55.3743 19.6866C55.1523 20.4245 54.8152 21.1079 54.3927 21.7248L53.6651 16.6841L55.3073 10.3204L55.9496 14.2936ZM52.965 19.3954L53.4409 22.6896C53.4474 22.735 53.4663 22.775 53.483 22.8155C52.9698 23.3238 52.3864 23.7571 51.7511 24.1001L52.965 19.3954ZM54.6337 6.16129L55.1685 9.46793C55.1156 9.43011 55.0572 9.39878 54.9908 9.38149L52.3108 8.69002L52.0104 6.59292L54.6337 6.16129ZM51.5183 9.60136L54.1977 10.2928L50.4951 24.6376C49.8139 24.8586 49.0965 24.9812 48.3602 24.9952V21.8393L51.5183 9.60136ZM47.2803 24.9336C46.2939 24.8056 45.3561 24.4809 44.5128 23.9942V11.4878H47.2803V24.9336ZM43.4324 23.2406C43.3773 23.1942 43.3211 23.1488 43.2676 23.1012L43.4324 22.561V23.2406ZM43.5426 7.39783L46.222 8.08931L45.6235 10.4079H43.9726C43.6739 10.4079 43.4324 10.6499 43.4324 10.9481V18.8617L42.4119 22.2045C41.8177 21.4709 41.3542 20.6222 41.0722 19.6866C41.0036 19.4586 40.7935 19.3025 40.5552 19.3025H40.4704L43.5426 7.39783ZM36.562 9.19782H39.3295V19.3025H36.562V9.19782ZM59.6317 47.1369H36.8153L35.3789 20.3829H40.1636C40.6049 21.6265 41.3272 22.7258 42.2423 23.6204C42.272 23.6555 42.3023 23.6879 42.3406 23.7149C43.8991 25.1913 45.9941 26.0816 48.2235 26.0816C51.8294 26.0816 55.0864 23.7576 56.283 20.3829H61.0681L59.6317 47.1369Z" fill="white"/>
<path d="M48.1565 29.1014C44.0752 29.1014 40.7556 32.4215 40.7556 36.5023C40.7556 40.583 44.0758 43.9032 48.1565 43.9032C52.2373 43.9032 55.5569 40.583 55.5569 36.5023C55.5569 32.4215 52.2373 29.1014 48.1565 29.1014ZM48.1565 42.8228C44.6716 42.8228 41.8361 39.9872 41.8361 36.5023C41.8361 33.0174 44.6716 30.1818 48.1565 30.1818C51.6415 30.1818 54.4765 33.0174 54.4765 36.5023C54.4765 39.9872 51.6415 42.8228 48.1565 42.8228Z" fill="white"/>
<path d="M22.6407 61.0829C22.6257 61.2896 22.5492 61.4522 22.4112 61.5709C22.274 61.6896 22.0929 61.749 21.8678 61.749C21.6216 61.749 21.4278 61.6663 21.2862 61.501C21.1455 61.3348 21.0752 61.1071 21.0752 60.8178V60.7005C21.0752 60.5158 21.1077 60.3532 21.1728 60.2125C21.2378 60.0718 21.3306 59.9641 21.4511 59.8894C21.5724 59.8137 21.7131 59.7759 21.8731 59.7759C22.0947 59.7759 22.2732 59.8353 22.4086 59.954C22.544 60.0727 22.6222 60.2393 22.6433 60.4538H22.2477C22.238 60.3299 22.2033 60.2402 22.1435 60.1848C22.0846 60.1285 21.9944 60.1004 21.8731 60.1004C21.7412 60.1004 21.6423 60.1479 21.5763 60.2428C21.5113 60.3369 21.4779 60.4833 21.4761 60.682V60.8271C21.4761 61.0346 21.5073 61.1863 21.5698 61.2821C21.6331 61.3779 21.7324 61.4258 21.8678 61.4258C21.99 61.4258 22.081 61.3982 22.1408 61.3428C22.2015 61.2865 22.2362 61.1999 22.245 61.0829H22.6407Z" fill="white"/>
<path d="M23.6773 60.653C23.6254 60.646 23.5797 60.6424 23.5402 60.6424C23.396 60.6424 23.3014 60.6912 23.2566 60.7888V61.7226H22.8754V60.2956H23.2355L23.246 60.4657C23.3225 60.3347 23.4285 60.2692 23.5639 60.2692C23.6061 60.2692 23.6457 60.2749 23.6826 60.2863L23.6773 60.653Z" fill="white"/>
<path d="M24.4924 61.749C24.2831 61.749 24.1125 61.6848 23.9807 61.5564C23.8497 61.428 23.7841 61.257 23.7841 61.0434V61.0064C23.7841 60.8631 23.8118 60.7352 23.8672 60.6227C23.9226 60.5092 24.0009 60.4222 24.102 60.3615C24.204 60.3 24.3201 60.2692 24.4502 60.2692C24.6454 60.2692 24.7988 60.3307 24.9105 60.4538C25.023 60.5769 25.0793 60.7515 25.0793 60.9774V61.1331H24.1706C24.1829 61.2263 24.2198 61.301 24.2814 61.3573C24.3438 61.4135 24.4225 61.4417 24.5174 61.4417C24.6643 61.4417 24.779 61.3885 24.8617 61.2821L25.0489 61.4918C24.9918 61.5727 24.9144 61.636 24.8168 61.6817C24.7192 61.7266 24.6111 61.749 24.4924 61.749ZM24.4489 60.5778C24.3732 60.5778 24.3117 60.6033 24.2642 60.6543C24.2176 60.7053 24.1877 60.7783 24.1745 60.8732H24.7047V60.8429C24.703 60.7585 24.6801 60.6934 24.6361 60.6477C24.5922 60.6011 24.5298 60.5778 24.4489 60.5778Z" fill="white"/>
<path d="M26.1238 61.7226C26.1062 61.6883 26.0935 61.6457 26.0856 61.5947C25.9933 61.6975 25.8732 61.749 25.7255 61.749C25.5857 61.749 25.4697 61.7085 25.3773 61.6276C25.2859 61.5467 25.2402 61.4448 25.2402 61.3217C25.2402 61.1704 25.296 61.0544 25.4077 60.9735C25.5202 60.8926 25.6824 60.8517 25.8943 60.8508H26.0698V60.769C26.0698 60.7031 26.0526 60.6503 26.0183 60.6108C25.9849 60.5712 25.9317 60.5514 25.8587 60.5514C25.7946 60.5514 25.744 60.5668 25.7071 60.5976C25.671 60.6284 25.653 60.6706 25.653 60.7242H25.2718C25.2718 60.6416 25.2973 60.5651 25.3483 60.4947C25.3993 60.4244 25.4714 60.3694 25.5646 60.3299C25.6578 60.2894 25.7625 60.2692 25.8785 60.2692C26.0544 60.2692 26.1937 60.3136 26.2966 60.4024C26.4004 60.4903 26.4522 60.6143 26.4522 60.7743V61.3929C26.4531 61.5283 26.472 61.6307 26.5089 61.7002V61.7226H26.1238ZM25.8086 61.4575C25.8649 61.4575 25.9168 61.4452 25.9642 61.4206C26.0117 61.3951 26.0469 61.3612 26.0698 61.319V61.0737H25.9273C25.7365 61.0737 25.635 61.1397 25.6227 61.2715L25.6213 61.294C25.6213 61.3414 25.638 61.3806 25.6715 61.4113C25.7049 61.4421 25.7506 61.4575 25.8086 61.4575Z" fill="white"/>
<path d="M27.2014 59.9448V60.2956H27.4453V60.5752H27.2014V61.2874C27.2014 61.3401 27.2115 61.3779 27.2317 61.4008C27.2519 61.4236 27.2906 61.4351 27.3478 61.4351C27.39 61.4351 27.4273 61.432 27.4599 61.4258V61.7147C27.3851 61.7375 27.3082 61.749 27.2291 61.749C26.9618 61.749 26.8255 61.614 26.8202 61.3441V60.5752H26.6118V60.2956H26.8202V59.9448H27.2014Z" fill="white"/>
<path d="M28.3145 61.749C28.1052 61.749 27.9347 61.6848 27.8028 61.5564C27.6718 61.428 27.6062 61.257 27.6062 61.0434V61.0064C27.6062 60.8631 27.6339 60.7352 27.6893 60.6227C27.7447 60.5092 27.823 60.4222 27.9241 60.3615C28.0261 60.3 28.1422 60.2692 28.2723 60.2692C28.4675 60.2692 28.6209 60.3307 28.7326 60.4538C28.8451 60.5769 28.9014 60.7515 28.9014 60.9774V61.1331H27.9927C28.005 61.2263 28.0419 61.301 28.1035 61.3573C28.1659 61.4135 28.2446 61.4417 28.3395 61.4417C28.4864 61.4417 28.6011 61.3885 28.6838 61.2821L28.8711 61.4918C28.8139 61.5727 28.7365 61.636 28.6389 61.6817C28.5413 61.7266 28.4332 61.749 28.3145 61.749ZM28.271 60.5778C28.1953 60.5778 28.1338 60.6033 28.0863 60.6543C28.0397 60.7053 28.0098 60.7783 27.9966 60.8732H28.5268V60.8429C28.5251 60.7585 28.5022 60.6934 28.4582 60.6477C28.4143 60.6011 28.3519 60.5778 28.271 60.5778Z" fill="white"/>
<path d="M29.0597 60.9985C29.0597 60.7761 29.1093 60.5989 29.2087 60.467C29.3089 60.3351 29.4456 60.2692 29.6189 60.2692C29.7578 60.2692 29.8725 60.3211 29.9631 60.4248V59.6968H30.3456V61.7226H30.0013L29.9829 61.5709C29.8879 61.6896 29.7657 61.749 29.6162 61.749C29.4483 61.749 29.3133 61.683 29.2113 61.5511C29.1102 61.4184 29.0597 61.2342 29.0597 60.9985ZM29.4408 61.0262C29.4408 61.1599 29.4641 61.2623 29.5107 61.3335C29.5573 61.4047 29.625 61.4404 29.7138 61.4404C29.8316 61.4404 29.9147 61.3907 29.9631 61.2913V60.7282C29.9156 60.6288 29.8334 60.5791 29.7165 60.5791C29.5327 60.5791 29.4408 60.7282 29.4408 61.0262Z" fill="white"/>
<path d="M32.5995 61.0223C32.5995 61.2509 32.5507 61.4294 32.4531 61.5577C32.3555 61.6852 32.2192 61.749 32.0443 61.749C31.8895 61.749 31.766 61.6896 31.6737 61.5709L31.6565 61.7226H31.3136V59.6968H31.6948V60.4235C31.7827 60.3206 31.8983 60.2692 32.0416 60.2692C32.2157 60.2692 32.352 60.3334 32.4505 60.4617C32.5498 60.5892 32.5995 60.769 32.5995 61.0012V61.0223ZM32.2184 60.9946C32.2184 60.8504 32.1955 60.7453 32.1498 60.6794C32.1041 60.6125 32.0359 60.5791 31.9454 60.5791C31.824 60.5791 31.7405 60.6288 31.6948 60.7282V61.2913C31.7414 61.3916 31.8258 61.4417 31.948 61.4417C32.0711 61.4417 32.152 61.381 32.1907 61.2597C32.2091 61.2016 32.2184 61.1133 32.2184 60.9946Z" fill="white"/>
<path d="M33.3526 61.1832L33.6164 60.2956H34.0252L33.4515 61.9442L33.4199 62.0193C33.3346 62.2057 33.1939 62.2989 32.9978 62.2989C32.9424 62.2989 32.8862 62.2906 32.829 62.2739V61.9851L32.887 61.9864C32.9591 61.9864 33.0128 61.9754 33.0479 61.9534C33.084 61.9314 33.1121 61.8949 33.1323 61.8439L33.1772 61.7266L32.6773 60.2956H33.0875L33.3526 61.1832Z" fill="white"/>
<path d="M35.3903 59.8023L35.8835 61.195L36.3741 59.8023H36.8938V61.7226H36.4968V61.1977L36.5364 60.2916L36.018 61.7226H35.7464L35.2294 60.2929L35.2689 61.1977V61.7226H34.8733V59.8023H35.3903Z" fill="white"/>
<path d="M38.0412 61.7226C38.0236 61.6883 38.0109 61.6457 38.0029 61.5947C37.9106 61.6975 37.7906 61.749 37.6429 61.749C37.5031 61.749 37.387 61.7085 37.2947 61.6276C37.2033 61.5467 37.1576 61.4448 37.1576 61.3217C37.1576 61.1704 37.2134 61.0544 37.325 60.9735C37.4376 60.8926 37.5998 60.8517 37.8117 60.8508H37.9871V60.769C37.9871 60.7031 37.97 60.6503 37.9357 60.6108C37.9023 60.5712 37.8491 60.5514 37.7761 60.5514C37.7119 60.5514 37.6614 60.5668 37.6244 60.5976C37.5884 60.6284 37.5704 60.6706 37.5704 60.7242H37.1892C37.1892 60.6416 37.2147 60.5651 37.2657 60.4947C37.3167 60.4244 37.3888 60.3694 37.482 60.3299C37.5752 60.2894 37.6798 60.2692 37.7959 60.2692C37.9717 60.2692 38.1111 60.3136 38.214 60.4024C38.3177 60.4903 38.3696 60.6143 38.3696 60.7743V61.3929C38.3705 61.5283 38.3894 61.6307 38.4263 61.7002V61.7226H38.0412ZM37.726 61.4575C37.7823 61.4575 37.8341 61.4452 37.8816 61.4206C37.9291 61.3951 37.9643 61.3612 37.9871 61.319V61.0737H37.8447C37.6539 61.0737 37.5523 61.1397 37.54 61.2715L37.5387 61.294C37.5387 61.3414 37.5554 61.3806 37.5888 61.4113C37.6222 61.4421 37.668 61.4575 37.726 61.4575Z" fill="white"/>
<path d="M38.603 60.9985C38.603 60.7761 38.6527 60.5989 38.7521 60.467C38.8523 60.3351 38.989 60.2692 39.1622 60.2692C39.3012 60.2692 39.4159 60.3211 39.5065 60.4248V59.6968H39.8889V61.7226H39.5447L39.5263 61.5709C39.4313 61.6896 39.3091 61.749 39.1596 61.749C38.9917 61.749 38.8567 61.683 38.7547 61.5511C38.6536 61.4184 38.603 61.2342 38.603 60.9985ZM38.9842 61.0262C38.9842 61.1599 39.0075 61.2623 39.0541 61.3335C39.1007 61.4047 39.1684 61.4404 39.2572 61.4404C39.375 61.4404 39.4581 61.3907 39.5065 61.2913V60.7282C39.459 60.6288 39.3768 60.5791 39.2598 60.5791C39.0761 60.5791 38.9842 60.7282 38.9842 61.0262Z" fill="white"/>
<path d="M40.8412 61.749C40.6319 61.749 40.4613 61.6848 40.3294 61.5564C40.1984 61.428 40.1329 61.257 40.1329 61.0434V61.0064C40.1329 60.8631 40.1606 60.7352 40.216 60.6227C40.2714 60.5092 40.3497 60.4222 40.4508 60.3615C40.5528 60.3 40.6688 60.2692 40.799 60.2692C40.9942 60.2692 41.1476 60.3307 41.2593 60.4538C41.3718 60.5769 41.4281 60.7515 41.4281 60.9774V61.1331H40.5194C40.5317 61.2263 40.5686 61.301 40.6302 61.3573C40.6926 61.4135 40.7713 61.4417 40.8662 61.4417C41.0131 61.4417 41.1278 61.3885 41.2105 61.2821L41.3977 61.4918C41.3406 61.5727 41.2632 61.636 41.1656 61.6817C41.068 61.7266 40.9599 61.749 40.8412 61.749ZM40.7976 60.5778C40.722 60.5778 40.6605 60.6033 40.613 60.6543C40.5664 60.7053 40.5365 60.7783 40.5233 60.8732H41.0535V60.8429C41.0518 60.7585 41.0289 60.6934 40.9849 60.6477C40.941 60.6011 40.8785 60.5778 40.7976 60.5778Z" fill="white"/>
<path d="M43.6042 61.0223C43.6042 61.2509 43.5554 61.4294 43.4578 61.5577C43.3602 61.6852 43.2239 61.749 43.049 61.749C42.8942 61.749 42.7707 61.6896 42.6784 61.5709L42.6612 61.7226H42.3183V59.6968H42.6995V60.4235C42.7874 60.3206 42.903 60.2692 43.0463 60.2692C43.2204 60.2692 43.3567 60.3334 43.4552 60.4617C43.5545 60.5892 43.6042 60.769 43.6042 61.0012V61.0223ZM43.2231 60.9946C43.2231 60.8504 43.2002 60.7453 43.1545 60.6794C43.1088 60.6125 43.0406 60.5791 42.9501 60.5791C42.8287 60.5791 42.7452 60.6288 42.6995 60.7282V61.2913C42.7461 61.3916 42.8305 61.4417 42.9527 61.4417C43.0758 61.4417 43.1567 61.381 43.1954 61.2597C43.2138 61.2016 43.2231 61.1133 43.2231 60.9946Z" fill="white"/>
<path d="M44.3573 61.1832L44.6211 60.2956H45.0299L44.4562 61.9442L44.4246 62.0193C44.3393 62.2057 44.1986 62.2989 44.0025 62.2989C43.9471 62.2989 43.8909 62.2906 43.8337 62.2739V61.9851L43.8917 61.9864C43.9638 61.9864 44.0175 61.9754 44.0526 61.9534C44.0887 61.9314 44.1168 61.8949 44.137 61.8439L44.1819 61.7266L43.682 60.2956H44.0922L44.3573 61.1832Z" fill="white"/>
<path d="M46.395 59.8023L46.8882 61.195L47.3788 59.8023H47.8985V61.7226H47.5015V61.1977L47.5411 60.2916L47.0227 61.7226H46.7511L46.2341 60.2929L46.2736 61.1977V61.7226H45.878V59.8023H46.395Z" fill="white"/>
<path d="M49.0459 61.7226C49.0283 61.6883 49.0156 61.6457 49.0077 61.5947C48.9153 61.6975 48.7953 61.749 48.6476 61.749C48.5078 61.749 48.3917 61.7085 48.2994 61.6276C48.208 61.5467 48.1623 61.4448 48.1623 61.3217C48.1623 61.1704 48.2181 61.0544 48.3297 60.9735C48.4423 60.8926 48.6045 60.8517 48.8164 60.8508H48.9918V60.769C48.9918 60.7031 48.9747 60.6503 48.9404 60.6108C48.907 60.5712 48.8538 60.5514 48.7808 60.5514C48.7166 60.5514 48.6661 60.5668 48.6291 60.5976C48.5931 60.6284 48.5751 60.6706 48.5751 60.7242H48.1939C48.1939 60.6416 48.2194 60.5651 48.2704 60.4947C48.3214 60.4244 48.3935 60.3694 48.4867 60.3299C48.5799 60.2894 48.6845 60.2692 48.8006 60.2692C48.9764 60.2692 49.1158 60.3136 49.2187 60.4024C49.3224 60.4903 49.3743 60.6143 49.3743 60.7743V61.3929C49.3752 61.5283 49.3941 61.6307 49.431 61.7002V61.7226H49.0459ZM48.7307 61.4575C48.787 61.4575 48.8388 61.4452 48.8863 61.4206C48.9338 61.3951 48.969 61.3612 48.9918 61.319V61.0737H48.8494C48.6586 61.0737 48.557 61.1397 48.5447 61.2715L48.5434 61.294C48.5434 61.3414 48.5601 61.3806 48.5935 61.4113C48.6269 61.4421 48.6727 61.4575 48.7307 61.4575Z" fill="white"/>
<path d="M49.6077 60.9985C49.6077 60.7761 49.6574 60.5989 49.7568 60.467C49.857 60.3351 49.9937 60.2692 50.1669 60.2692C50.3059 60.2692 50.4206 60.3211 50.5112 60.4248V59.6968H50.8936V61.7226H50.5494L50.531 61.5709C50.436 61.6896 50.3138 61.749 50.1643 61.749C49.9964 61.749 49.8614 61.683 49.7594 61.5511C49.6583 61.4184 49.6077 61.2342 49.6077 60.9985ZM49.9889 61.0262C49.9889 61.1599 50.0122 61.2623 50.0588 61.3335C50.1054 61.4047 50.1731 61.4404 50.2619 61.4404C50.3797 61.4404 50.4628 61.3907 50.5112 61.2913V60.7282C50.4637 60.6288 50.3815 60.5791 50.2645 60.5791C50.0808 60.5791 49.9889 60.7282 49.9889 61.0262Z" fill="white"/>
<path d="M51.8459 61.749C51.6366 61.749 51.466 61.6848 51.3341 61.5564C51.2031 61.428 51.1376 61.257 51.1376 61.0434V61.0064C51.1376 60.8631 51.1653 60.7352 51.2207 60.6227C51.2761 60.5092 51.3544 60.4222 51.4555 60.3615C51.5575 60.3 51.6735 60.2692 51.8037 60.2692C51.9989 60.2692 52.1523 60.3307 52.264 60.4538C52.3765 60.5769 52.4328 60.7515 52.4328 60.9774V61.1331H51.5241C51.5364 61.2263 51.5733 61.301 51.6349 61.3573C51.6973 61.4135 51.776 61.4417 51.8709 61.4417C52.0178 61.4417 52.1325 61.3885 52.2152 61.2821L52.4024 61.4918C52.3453 61.5727 52.2679 61.636 52.1703 61.6817C52.0727 61.7266 51.9646 61.749 51.8459 61.749ZM51.8023 60.5778C51.7267 60.5778 51.6652 60.6033 51.6177 60.6543C51.5711 60.7053 51.5412 60.7783 51.528 60.8732H52.0582V60.8429C52.0565 60.7585 52.0336 60.6934 51.9896 60.6477C51.9457 60.6011 51.8832 60.5778 51.8023 60.5778Z" fill="white"/>
<path d="M21.2123 64.4237V63.2762H21V62.9966H21.2123V62.8753C21.2123 62.7153 21.2581 62.5913 21.3495 62.5034C21.4418 62.4146 21.5706 62.3702 21.7359 62.3702C21.7887 62.3702 21.8533 62.379 21.9298 62.3965L21.9259 62.692C21.8942 62.6841 21.8555 62.6801 21.8098 62.6801C21.6665 62.6801 21.5948 62.7474 21.5948 62.8819V62.9966H21.8784V63.2762H21.5948V64.4237H21.2123Z" fill="white"/>
<path d="M22.8781 63.354C22.8262 63.347 22.7805 63.3435 22.7409 63.3435C22.5967 63.3435 22.5022 63.3923 22.4574 63.4899V64.4237H22.0762V62.9966H22.4363L22.4468 63.1668C22.5233 63.0358 22.6293 62.9703 22.7647 62.9703C22.8069 62.9703 22.8464 62.976 22.8834 62.9874L22.8781 63.354Z" fill="white"/>
<path d="M22.9559 63.697C22.9559 63.5554 22.9831 63.4292 23.0377 63.3184C23.0922 63.2076 23.1704 63.1219 23.2724 63.0613C23.3753 63.0006 23.4944 62.9703 23.6298 62.9703C23.8224 62.9703 23.9793 63.0292 24.1007 63.147C24.2229 63.2648 24.291 63.4248 24.3051 63.6271L24.3077 63.7246C24.3077 63.9436 24.2466 64.1194 24.1244 64.2522C24.0022 64.3841 23.8382 64.45 23.6325 64.45C23.4267 64.45 23.2623 64.3841 23.1392 64.2522C23.017 64.1203 22.9559 63.9409 22.9559 63.7141V63.697ZM23.337 63.7246C23.337 63.8601 23.3625 63.9638 23.4135 64.0359C23.4645 64.1071 23.5375 64.1427 23.6325 64.1427C23.7248 64.1427 23.7969 64.1076 23.8488 64.0372C23.9006 63.966 23.9266 63.8526 23.9266 63.697C23.9266 63.5642 23.9006 63.4613 23.8488 63.3883C23.7969 63.3154 23.7239 63.2789 23.6298 63.2789C23.5366 63.2789 23.4645 63.3154 23.4135 63.3883C23.3625 63.4604 23.337 63.5725 23.337 63.7246Z" fill="white"/>
<path d="M24.8999 62.9966L24.9118 63.1562C25.0129 63.0322 25.1496 62.9703 25.322 62.9703C25.5057 62.9703 25.6319 63.0428 25.7005 63.1879C25.8007 63.0428 25.9436 62.9703 26.1291 62.9703C26.2839 62.9703 26.399 63.0155 26.4747 63.1061C26.5503 63.1958 26.5881 63.3312 26.5881 63.5123V64.4237H26.2056V63.5136C26.2056 63.4327 26.1898 63.3738 26.1581 63.3369C26.1265 63.2991 26.0706 63.2802 25.9906 63.2802C25.8763 63.2802 25.7972 63.3347 25.7532 63.4437L25.7545 64.4237H25.3734V63.5149C25.3734 63.4323 25.3571 63.3725 25.3246 63.3356C25.2921 63.2987 25.2367 63.2802 25.1584 63.2802C25.0503 63.2802 24.972 63.325 24.9237 63.4147V64.4237H24.5425V62.9966H24.8999Z" fill="white"/>
<path d="M28.0111 62.6458V62.9966H28.2551V63.2762H28.0111V63.9884C28.0111 64.0412 28.0213 64.079 28.0415 64.1018C28.0617 64.1247 28.1004 64.1361 28.1575 64.1361C28.1997 64.1361 28.2371 64.1331 28.2696 64.1269V64.4157C28.1949 64.4386 28.118 64.45 28.0388 64.45C27.7715 64.45 27.6353 64.3151 27.63 64.0451V63.2762H27.4216V62.9966H27.63V62.6458H28.0111Z" fill="white"/>
<path d="M28.8394 63.1523C28.9405 63.0309 29.0676 62.9703 29.2206 62.9703C29.5301 62.9703 29.687 63.1501 29.6914 63.5097V64.4237H29.3102V63.5202C29.3102 63.4385 29.2927 63.3782 29.2575 63.3395C29.2223 63.3 29.1638 63.2802 29.0821 63.2802C28.9704 63.2802 28.8895 63.3233 28.8394 63.4094V64.4237H28.4582V62.3979H28.8394V63.1523Z" fill="white"/>
<path d="M30.6357 64.45C30.4264 64.45 30.2559 64.3858 30.124 64.2575C29.993 64.1291 29.9275 63.9581 29.9275 63.7444V63.7075C29.9275 63.5642 29.9552 63.4363 30.0106 63.3237C30.066 63.2103 30.1442 63.1232 30.2453 63.0626C30.3473 63.001 30.4634 62.9703 30.5935 62.9703C30.7887 62.9703 30.9421 63.0318 31.0538 63.1549C31.1663 63.278 31.2226 63.4525 31.2226 63.6785V63.8341H30.3139C30.3262 63.9273 30.3631 64.0021 30.4247 64.0583C30.4871 64.1146 30.5658 64.1427 30.6608 64.1427C30.8076 64.1427 30.9223 64.0895 31.005 63.9831L31.1923 64.1928C31.1351 64.2737 31.0577 64.337 30.9602 64.3828C30.8626 64.4276 30.7544 64.45 30.6357 64.45ZM30.5922 63.2789C30.5166 63.2789 30.455 63.3044 30.4075 63.3554C30.3609 63.4064 30.331 63.4793 30.3179 63.5743H30.848V63.544C30.8463 63.4596 30.8234 63.3945 30.7795 63.3488C30.7355 63.3022 30.6731 63.2789 30.5922 63.2789Z" fill="white"/>
<path d="M33.6995 64.4237H33.3038L32.5336 63.1602V64.4237H32.1379V62.5034H32.5336L33.3051 63.7695V62.5034H33.6995V64.4237Z" fill="white"/>
<path d="M33.9606 63.697C33.9606 63.5554 33.9879 63.4292 34.0424 63.3184C34.0969 63.2076 34.1751 63.1219 34.2771 63.0613C34.38 63.0006 34.4991 62.9703 34.6345 62.9703C34.8271 62.9703 34.984 63.0292 35.1054 63.147C35.2276 63.2648 35.2957 63.4248 35.3098 63.6271L35.3124 63.7246C35.3124 63.9436 35.2513 64.1194 35.1291 64.2522C35.0069 64.3841 34.8429 64.45 34.6372 64.45C34.4314 64.45 34.267 64.3841 34.1439 64.2522C34.0217 64.1203 33.9606 63.9409 33.9606 63.7141V63.697ZM34.3417 63.7246C34.3417 63.8601 34.3672 63.9638 34.4182 64.0359C34.4692 64.1071 34.5422 64.1427 34.6372 64.1427C34.7295 64.1427 34.8016 64.1076 34.8535 64.0372C34.9053 63.966 34.9313 63.8526 34.9313 63.697C34.9313 63.5642 34.9053 63.4613 34.8535 63.3883C34.8016 63.3154 34.7286 63.2789 34.6345 63.2789C34.5413 63.2789 34.4692 63.3154 34.4182 63.3883C34.3672 63.4604 34.3417 63.5725 34.3417 63.7246Z" fill="white"/>
<path d="M36.4018 64.2786C36.3078 64.3929 36.1776 64.45 36.0114 64.45C35.8585 64.45 35.7415 64.4061 35.6606 64.3181C35.5806 64.2302 35.5397 64.1014 35.538 63.9317V62.9966H35.9191V63.9185C35.9191 64.0671 35.9868 64.1414 36.1222 64.1414C36.2515 64.1414 36.3403 64.0966 36.3886 64.0069V62.9966H36.7711V64.4237H36.4124L36.4018 64.2786Z" fill="white"/>
<path d="M37.4095 62.9966L37.4213 63.1615C37.5233 63.034 37.66 62.9703 37.8315 62.9703C37.9827 62.9703 38.0953 63.0147 38.1691 63.1035C38.243 63.1923 38.2808 63.325 38.2826 63.5018V64.4237H37.9014V63.511C37.9014 63.4301 37.8838 63.3716 37.8486 63.3356C37.8135 63.2987 37.755 63.2802 37.6732 63.2802C37.566 63.2802 37.4855 63.3259 37.4319 63.4174V64.4237H37.0507V62.9966H37.4095Z" fill="white"/>
<path d="M39.6661 63.7471V64.4237H39.2704V62.5034H40.0195C40.1637 62.5034 40.2903 62.5297 40.3993 62.5825C40.5093 62.6353 40.5937 62.7104 40.6526 62.808C40.7115 62.9047 40.7409 63.0151 40.7409 63.1391C40.7409 63.3272 40.6763 63.4758 40.5471 63.5848C40.4187 63.693 40.2406 63.7471 40.0129 63.7471H39.6661ZM39.6661 63.4266H40.0195C40.1241 63.4266 40.2037 63.402 40.2582 63.3527C40.3136 63.3035 40.3413 63.2331 40.3413 63.1417C40.3413 63.0476 40.3136 62.9716 40.2582 62.9135C40.2028 62.8555 40.1263 62.8256 40.0287 62.8239H39.6661V63.4266Z" fill="white"/>
<path d="M41.7908 63.354C41.7389 63.347 41.6932 63.3435 41.6536 63.3435C41.5094 63.3435 41.4149 63.3923 41.37 63.4899V64.4237H40.9889V62.9966H41.3489L41.3595 63.1668C41.436 63.0358 41.5419 62.9703 41.6773 62.9703C41.7195 62.9703 41.7591 62.976 41.796 62.9874L41.7908 63.354Z" fill="white"/>
<path d="M41.8686 63.697C41.8686 63.5554 41.8958 63.4292 41.9503 63.3184C42.0049 63.2076 42.0831 63.1219 42.1851 63.0613C42.288 63.0006 42.4071 62.9703 42.5425 62.9703C42.7351 62.9703 42.892 63.0292 43.0134 63.147C43.1356 63.2648 43.2037 63.4248 43.2178 63.6271L43.2204 63.7246C43.2204 63.9436 43.1593 64.1194 43.0371 64.2522C42.9149 64.3841 42.7509 64.45 42.5452 64.45C42.3394 64.45 42.175 64.3841 42.0519 64.2522C41.9297 64.1203 41.8686 63.9409 41.8686 63.7141V63.697ZM42.2497 63.7246C42.2497 63.8601 42.2752 63.9638 42.3262 64.0359C42.3772 64.1071 42.4502 64.1427 42.5452 64.1427C42.6375 64.1427 42.7096 64.1076 42.7615 64.0372C42.8133 63.966 42.8393 63.8526 42.8393 63.697C42.8393 63.5642 42.8133 63.4613 42.7615 63.3883C42.7096 63.3154 42.6366 63.2789 42.5425 63.2789C42.4493 63.2789 42.3772 63.3154 42.3262 63.3883C42.2752 63.4604 42.2497 63.5725 42.2497 63.7246Z" fill="white"/>
<path d="M43.8588 62.9966V64.5015C43.8588 64.6589 43.817 64.7811 43.7335 64.8681C43.6499 64.956 43.5295 65 43.3721 65C43.3062 65 43.2433 64.9925 43.1835 64.9776V64.6756C43.2292 64.6835 43.2692 64.6874 43.3035 64.6874C43.4187 64.6874 43.4763 64.6263 43.4763 64.5041V62.9966H43.8588ZM43.446 62.6273C43.446 62.5702 43.4649 62.5232 43.5027 62.4862C43.5413 62.4493 43.5937 62.4308 43.6596 62.4308C43.7256 62.4308 43.7774 62.4493 43.8152 62.4862C43.8539 62.5232 43.8733 62.5702 43.8733 62.6273C43.8733 62.6854 43.8535 62.7329 43.8139 62.7698C43.7752 62.8067 43.7238 62.8252 43.6596 62.8252C43.5954 62.8252 43.5435 62.8067 43.504 62.7698C43.4653 62.7329 43.446 62.6854 43.446 62.6273Z" fill="white"/>
<path d="M44.8136 64.45C44.6044 64.45 44.4338 64.3858 44.3019 64.2575C44.1709 64.1291 44.1054 63.9581 44.1054 63.7444V63.7075C44.1054 63.5642 44.1331 63.4363 44.1885 63.3237C44.2439 63.2103 44.3221 63.1232 44.4232 63.0626C44.5252 63.001 44.6413 62.9703 44.7714 62.9703C44.9666 62.9703 45.12 63.0318 45.2317 63.1549C45.3443 63.278 45.4005 63.4525 45.4005 63.6785V63.8341H44.4918C44.5041 63.9273 44.5411 64.0021 44.6026 64.0583C44.665 64.1146 44.7437 64.1427 44.8387 64.1427C44.9855 64.1427 45.1003 64.0895 45.1829 63.9831L45.3702 64.1928C45.313 64.2737 45.2357 64.337 45.1381 64.3828C45.0405 64.4276 44.9323 64.45 44.8136 64.45ZM44.7701 63.2789C44.6945 63.2789 44.6329 63.3044 44.5855 63.3554C44.5389 63.4064 44.509 63.4793 44.4958 63.5743H45.026V63.544C45.0242 63.4596 45.0013 63.3945 44.9574 63.3488C44.9134 63.3022 44.851 63.2789 44.7701 63.2789Z" fill="white"/>
<path d="M46.2116 64.1427C46.282 64.1427 46.3391 64.1234 46.3831 64.0847C46.4271 64.046 46.4499 63.9946 46.4517 63.9304H46.8091C46.8082 64.0271 46.7818 64.1159 46.73 64.1968C46.6781 64.2768 46.6069 64.3392 46.5163 64.3841C46.4266 64.428 46.3273 64.45 46.2182 64.45C46.0142 64.45 45.8533 64.3854 45.7355 64.2562C45.6177 64.126 45.5588 63.9467 45.5588 63.7181V63.693C45.5588 63.4732 45.6173 63.2978 45.7342 63.1668C45.8511 63.0358 46.0116 62.9703 46.2156 62.9703C46.3941 62.9703 46.537 63.0212 46.6442 63.1232C46.7524 63.2244 46.8073 63.3593 46.8091 63.5281H46.4517C46.4499 63.4543 46.4271 63.3945 46.3831 63.3488C46.3391 63.3022 46.2811 63.2789 46.209 63.2789C46.1202 63.2789 46.0529 63.3114 46.0072 63.3765C45.9624 63.4407 45.9399 63.5453 45.9399 63.6904V63.7299C45.9399 63.8768 45.9624 63.9823 46.0072 64.0465C46.0521 64.1106 46.1202 64.1427 46.2116 64.1427Z" fill="white"/>
<path d="M47.483 62.6458V62.9966H47.727V63.2762H47.483V63.9884C47.483 64.0412 47.4931 64.079 47.5134 64.1018C47.5336 64.1247 47.5723 64.1361 47.6294 64.1361C47.6716 64.1361 47.709 64.1331 47.7415 64.1269V64.4157C47.6668 64.4386 47.5899 64.45 47.5107 64.45C47.2434 64.45 47.1072 64.3151 47.1019 64.0451V63.2762H46.8935V62.9966H47.1019V62.6458H47.483Z" fill="white"/>
<defs>
<filter id="filter0_d" x="0" y="0" width="77" height="77" filterUnits="userSpaceOnUse" color-interpolation-filters="sRGB">
<feFlood flood-opacity="0" result="BackgroundImageFix"/>
<feColorMatrix in="SourceAlpha" type="matrix" values="0 0 0 0 0 0 0 0 0 0 0 0 0 0 0 0 0 0 127 0"/>
<feOffset dx="-5" dy="5"/>
<feGaussianBlur stdDeviation="1"/>
<feColorMatrix type="matrix" values="0 0 0 0 0 0 0 0 0 0 0 0 0 0 0 0 0 0 0.25 0"/>
<feBlend mode="normal" in2="BackgroundImageFix" result="effect1_dropShadow"/>
<feBlend mode="normal" in="SourceGraphic" in2="effect1_dropShadow" result="shape"/>
</filter>
</defs>
</svg>
