<svg width="40" height="40" viewBox="0 0 40 40" fill="none" xmlns="http://www.w3.org/2000/svg">
<path d="M29.1724 0H10.8276C4.85718 0 0 4.85718 0 10.8276V29.1727C0 35.1428 4.85718 40 10.8276 40H29.1727C35.1428 40 40 35.1428 40 29.1727V10.8276C40 4.85718 35.1428 0 29.1724 0ZM37.655 29.1727C37.655 33.8498 33.8498 37.655 29.1724 37.655H10.8276C6.15021 37.655 2.34497 33.8498 2.34497 29.1727V10.8276C2.34497 6.15021 6.15021 2.34497 10.8276 2.34497H29.1727C33.8498 2.34497 37.655 6.15021 37.655 10.8276V29.1727Z" fill="white"/>
<path d="M20 9.06281C13.9691 9.06281 9.06281 13.9691 9.06281 20C9.06281 26.0309 13.9691 30.9372 20 30.9372C26.0309 30.9372 30.9372 26.0309 30.9372 20C30.9372 13.9691 26.0309 9.06281 20 9.06281ZM20 28.5922C15.2625 28.5922 11.4078 24.7379 11.4078 20C11.4078 15.2625 15.2625 11.4078 20 11.4078C24.7379 11.4078 28.5922 15.2625 28.5922 20C28.5922 24.7379 24.7379 28.5922 20 28.5922Z" fill="white"/>
<path d="M31.1987 5.17853C29.4165 5.17853 27.9669 6.62842 27.9669 8.41034C27.9669 10.1926 29.4165 11.6425 31.1987 11.6425C32.981 11.6425 34.4308 10.1926 34.4308 8.41034C34.4308 6.62811 32.981 5.17853 31.1987 5.17853ZM31.1987 9.29718C30.7098 9.29718 30.3119 8.89923 30.3119 8.41034C30.3119 7.92114 30.7098 7.5235 31.1987 7.5235C31.6879 7.5235 32.0859 7.92114 32.0859 8.41034C32.0859 8.89923 31.6879 9.29718 31.1987 9.29718Z" fill="white"/>
</svg>
