<svg width="246" height="36" viewBox="0 0 246 36" fill="none" xmlns="http://www.w3.org/2000/svg">
<path d="M7.848 31.104C6.96 31.104 6.18 31.032 5.508 30.888C4.836 30.744 4.248 30.396 3.744 29.844C3.264 29.292 3.024 28.44 3.024 27.288C3.024 25.68 3.504 23.52 4.464 20.808C5.448 18.096 6.732 15.372 8.316 12.636C7.116 12.708 6.168 12.888 5.472 13.176C4.776 13.464 4.32 13.908 4.104 14.508C4.2 14.508 4.296 14.628 4.392 14.868C4.512 15.108 4.572 15.36 4.572 15.624C4.572 16.056 4.38 16.404 3.996 16.668C3.612 16.908 3.132 17.028 2.556 17.028C1.884 17.028 1.344 16.848 0.936 16.488C0.528 16.128 0.324 15.612 0.324 14.94C0.324 14.124 0.636 13.38 1.26 12.708C1.908 12.036 2.796 11.508 3.924 11.124C5.052 10.716 6.3 10.512 7.668 10.512C8.172 10.512 8.796 10.548 9.54 10.62C11.508 7.5 13.584 4.956 15.768 2.988C17.976 0.995998 20.076 -2.14577e-06 22.068 -2.14577e-06C23.22 -2.14577e-06 24.168 0.167998 24.912 0.503998L19.26 27H14.076L16.848 13.932C15.96 13.524 15.144 13.224 14.4 13.032C13.656 12.84 12.864 12.708 12.024 12.636C10.656 15.588 9.528 18.612 8.64 21.708C7.776 24.78 7.344 27.24 7.344 29.088C7.344 30 7.512 30.672 7.848 31.104ZM19.26 2.556C18.228 3.108 17.148 4.14 16.02 5.652C14.916 7.14 13.836 8.952 12.78 11.088C14.508 11.424 15.972 11.844 17.172 12.348L19.26 2.556ZM45.9349 27.216C44.4709 27.216 43.3909 26.832 42.6949 26.064C42.0229 25.272 41.6869 24.3 41.6869 23.148C41.6869 22.644 41.7469 22.08 41.8669 21.456C41.9869 20.808 42.1069 20.184 42.2269 19.584C42.3709 18.984 42.4669 18.6 42.5149 18.432C42.7069 17.592 42.8869 16.764 43.0549 15.948C43.2229 15.132 43.3069 14.472 43.3069 13.968C43.3069 12.744 42.8749 12.132 42.0109 12.132C41.3869 12.132 40.8349 12.444 40.3549 13.068C39.8749 13.668 39.4909 14.46 39.2029 15.444L36.7549 27H31.5709L34.1989 14.58C34.2709 14.292 34.3069 13.992 34.3069 13.68C34.3069 12.624 33.9469 12.096 33.2269 12.096C32.5549 12.096 31.9669 12.408 31.4629 13.032C30.9829 13.632 30.5989 14.436 30.3109 15.444L27.8629 27H22.6789L26.4949 9H31.6789L31.2829 10.872C32.5069 9.504 33.9709 8.82 35.6749 8.82C37.7869 8.82 39.0229 9.852 39.3829 11.916C40.7029 9.876 42.3709 8.856 44.3869 8.856C45.6109 8.856 46.5829 9.192 47.3029 9.864C48.0229 10.536 48.3829 11.556 48.3829 12.924C48.3829 13.62 48.2989 14.4 48.1309 15.264C47.9629 16.104 47.7229 17.136 47.4109 18.36C47.2189 19.104 47.0389 19.836 46.8709 20.556C46.7269 21.252 46.6549 21.804 46.6549 22.212C46.6549 22.692 46.7629 23.064 46.9789 23.328C47.1949 23.592 47.5669 23.724 48.0949 23.724C48.8149 23.724 49.3909 23.472 49.8229 22.968C50.2549 22.44 50.6869 21.636 51.1189 20.556H52.6309C51.7429 23.196 50.7109 24.972 49.5349 25.884C48.3829 26.772 47.1829 27.216 45.9349 27.216ZM62.4212 -2.14577e-06H66.2012L61.8452 6.804H59.1452L62.4212 -2.14577e-06ZM56.2652 27.216C54.4892 27.216 53.1092 26.76 52.1252 25.848C51.1412 24.912 50.6492 23.46 50.6492 21.492C50.6492 19.836 50.9732 18.012 51.6212 16.02C52.2692 14.028 53.3252 12.312 54.7892 10.872C56.2532 9.408 58.1132 8.676 60.3692 8.676C63.0092 8.676 64.3292 9.828 64.3292 12.132C64.3292 13.476 63.9452 14.712 63.1772 15.84C62.4092 16.968 61.3892 17.88 60.1172 18.576C58.8452 19.248 57.4892 19.632 56.0492 19.728C56.0012 20.448 55.9772 20.928 55.9772 21.168C55.9772 22.344 56.1812 23.148 56.5892 23.58C56.9972 23.988 57.6572 24.192 58.5692 24.192C59.8652 24.192 60.9692 23.892 61.8812 23.292C62.8172 22.692 63.8372 21.78 64.9412 20.556H66.1652C63.5012 24.996 60.2012 27.216 56.2652 27.216ZM56.3372 18C57.2252 17.952 58.0652 17.64 58.8572 17.064C59.6732 16.488 60.3212 15.756 60.8012 14.868C61.3052 13.98 61.5572 13.044 61.5572 12.06C61.5572 11.076 61.2572 10.584 60.6572 10.584C59.7932 10.584 58.9412 11.34 58.1012 12.852C57.2852 14.364 56.6972 16.08 56.3372 18ZM67.3816 9H72.5656L72.0976 11.232C72.9136 10.512 73.6456 9.96 74.2936 9.576C74.9656 9.192 75.6856 9 76.4536 9C77.2216 9 77.8216 9.264 78.2536 9.792C78.7096 10.32 78.9376 10.956 78.9376 11.7C78.9376 12.396 78.7096 13.008 78.2536 13.536C77.7976 14.064 77.1616 14.328 76.3456 14.328C75.8176 14.328 75.4576 14.208 75.2656 13.968C75.0976 13.704 74.9656 13.332 74.8696 12.852C74.7976 12.54 74.7256 12.312 74.6536 12.168C74.5816 12.024 74.4496 11.952 74.2576 11.952C73.7536 11.952 73.3216 12.06 72.9616 12.276C72.6256 12.468 72.1816 12.816 71.6296 13.32L68.7496 27H63.5656L67.3816 9ZM84.4808 7.056C83.6888 7.056 83.0168 6.78 82.4648 6.228C81.9128 5.676 81.6368 5.004 81.6368 4.212C81.6368 3.42 81.9128 2.748 82.4648 2.196C83.0168 1.62 83.6888 1.332 84.4808 1.332C85.2728 1.332 85.9448 1.62 86.4968 2.196C87.0728 2.748 87.3608 3.42 87.3608 4.212C87.3608 5.004 87.0728 5.676 86.4968 6.228C85.9448 6.78 85.2728 7.056 84.4808 7.056ZM82.0328 27.216C80.8808 27.216 79.9448 26.856 79.2248 26.136C78.5288 25.416 78.1807 24.336 78.1807 22.896C78.1807 22.296 78.2767 21.516 78.4688 20.556L80.9168 9H86.1008L83.5088 21.24C83.4128 21.6 83.3648 21.984 83.3648 22.392C83.3648 22.872 83.4728 23.22 83.6888 23.436C83.9288 23.628 84.3128 23.724 84.8408 23.724C85.5368 23.724 86.1848 23.436 86.7848 22.86C87.3848 22.26 87.8168 21.492 88.0808 20.556H89.5928C88.7048 23.148 87.5648 24.912 86.1728 25.848C84.7808 26.76 83.4008 27.216 82.0328 27.216ZM93.2144 27.216C91.4384 27.216 90.0584 26.76 89.0744 25.848C88.0904 24.912 87.5984 23.46 87.5984 21.492C87.5984 19.836 87.9224 18.012 88.5704 16.02C89.2424 14.028 90.2984 12.312 91.7384 10.872C93.2024 9.408 95.0504 8.676 97.2824 8.676C98.7224 8.676 99.7424 8.988 100.342 9.612C100.966 10.236 101.278 11.028 101.278 11.988C101.278 12.828 101.098 13.476 100.738 13.932C100.378 14.388 99.9224 14.616 99.3704 14.616C98.9624 14.616 98.5424 14.472 98.1104 14.184C98.3984 13.392 98.5424 12.684 98.5424 12.06C98.5424 11.604 98.4584 11.244 98.2904 10.98C98.1224 10.716 97.8704 10.584 97.5344 10.584C96.8144 10.584 96.0944 11.172 95.3744 12.348C94.6544 13.524 94.0664 14.952 93.6104 16.632C93.1544 18.312 92.9264 19.824 92.9264 21.168C92.9264 22.344 93.1304 23.148 93.5384 23.58C93.9464 23.988 94.6064 24.192 95.5184 24.192C96.8144 24.192 97.9184 23.892 98.8304 23.292C99.7664 22.692 100.786 21.78 101.89 20.556H103.114C100.45 24.996 97.1504 27.216 93.2144 27.216ZM106.203 27.216C104.835 27.216 103.695 26.748 102.783 25.812C101.871 24.876 101.415 23.412 101.415 21.42C101.415 19.644 101.763 17.784 102.459 15.84C103.179 13.872 104.235 12.216 105.627 10.872C107.043 9.504 108.723 8.82 110.667 8.82C111.651 8.82 112.383 8.988 112.863 9.324C113.343 9.66 113.583 10.104 113.583 10.656V10.908L113.979 9H119.163L116.571 21.24C116.475 21.6 116.427 21.984 116.427 22.392C116.427 22.872 116.535 23.22 116.751 23.436C116.991 23.628 117.375 23.724 117.903 23.724C118.239 23.724 118.503 23.676 118.695 23.58C118.167 24.924 117.663 25.872 117.183 26.424C116.703 26.952 116.007 27.216 115.095 27.216C114.111 27.216 113.307 26.928 112.683 26.352C112.083 25.752 111.711 24.924 111.567 23.868C110.103 26.1 108.315 27.216 106.203 27.216ZM108.543 23.724C109.143 23.724 109.731 23.448 110.307 22.896C110.907 22.32 111.315 21.54 111.531 20.556L113.259 12.42C113.259 12.108 113.139 11.808 112.899 11.52C112.659 11.208 112.287 11.052 111.783 11.052C110.823 11.052 109.959 11.616 109.191 12.744C108.423 13.848 107.823 15.192 107.391 16.776C106.959 18.336 106.743 19.716 106.743 20.916C106.743 22.116 106.911 22.884 107.247 23.22C107.607 23.556 108.039 23.724 108.543 23.724ZM140.424 27.612C139.464 27.612 138.624 27.408 137.904 27C137.208 26.616 136.86 25.932 136.86 24.948C136.86 24.324 137.016 23.628 137.328 22.86C137.76 23.34 138.156 23.676 138.516 23.868C138.9 24.06 139.308 24.156 139.74 24.156C140.94 24.156 141.828 23.484 142.404 22.14C143.004 20.796 143.304 19.308 143.304 17.676C143.304 14.628 142.164 13.104 139.884 13.104C139.236 13.104 138.684 13.14 138.228 13.212L135.276 27H130.092L134.988 4.104L140.316 3.384L138.624 11.376H138.84C139.752 11.376 140.604 11.088 141.396 10.512C142.188 9.912 142.824 9.168 143.304 8.28C143.784 7.368 144.024 6.456 144.024 5.544C144.024 4.44 143.628 3.516 142.836 2.772C142.068 2.028 140.88 1.656 139.272 1.656C137.808 1.656 136.38 1.992 134.988 2.664C133.596 3.312 132.456 4.296 131.568 5.616C130.704 6.936 130.272 8.532 130.272 10.404C130.272 11.292 130.356 11.916 130.524 12.276C130.692 12.612 130.776 12.804 130.776 12.852C129.504 12.852 128.544 12.6 127.896 12.096C127.248 11.568 126.924 10.716 126.924 9.54C126.924 7.908 127.536 6.36 128.76 4.896C129.984 3.432 131.604 2.256 133.62 1.368C135.636 0.455998 137.76 -2.14577e-06 139.992 -2.14577e-06C141.672 -2.14577e-06 143.088 0.263998 144.24 0.791998C145.392 1.32 146.244 2.016 146.796 2.88C147.372 3.744 147.66 4.692 147.66 5.724C147.66 6.828 147.348 7.896 146.724 8.928C146.1 9.96 145.212 10.8 144.06 11.448C145.5 11.712 146.568 12.384 147.264 13.464C147.96 14.52 148.308 15.78 148.308 17.244C148.308 18.612 148.044 20.1 147.516 21.708C147.012 23.316 146.16 24.708 144.96 25.884C143.784 27.036 142.272 27.612 140.424 27.612ZM153.119 27.216C151.967 27.216 151.031 26.856 150.311 26.136C149.615 25.416 149.267 24.336 149.267 22.896C149.267 22.296 149.363 21.516 149.555 20.556L152.003 9H157.187L154.595 21.24C154.523 21.6 154.487 21.936 154.487 22.248C154.487 23.232 154.847 23.724 155.567 23.724C156.239 23.724 156.815 23.448 157.295 22.896C157.775 22.32 158.159 21.54 158.447 20.556L160.895 9H166.079L163.487 21.24C163.391 21.6 163.343 21.984 163.343 22.392C163.343 22.872 163.451 23.22 163.667 23.436C163.907 23.628 164.291 23.724 164.819 23.724C165.491 23.724 166.067 23.436 166.547 22.86C167.051 22.284 167.447 21.516 167.735 20.556H169.247C168.359 23.148 167.255 24.912 165.935 25.848C164.639 26.76 163.331 27.216 162.011 27.216C160.979 27.216 160.151 26.928 159.527 26.352C158.927 25.776 158.567 24.924 158.447 23.796C157.631 25.116 156.767 26.016 155.855 26.496C154.967 26.976 154.055 27.216 153.119 27.216ZM170.178 9H175.362L174.894 11.232C175.71 10.512 176.442 9.96 177.09 9.576C177.762 9.192 178.482 9 179.25 9C180.018 9 180.618 9.264 181.05 9.792C181.506 10.32 181.734 10.956 181.734 11.7C181.734 12.396 181.506 13.008 181.05 13.536C180.594 14.064 179.958 14.328 179.142 14.328C178.614 14.328 178.254 14.208 178.062 13.968C177.894 13.704 177.762 13.332 177.666 12.852C177.594 12.54 177.522 12.312 177.45 12.168C177.378 12.024 177.246 11.952 177.054 11.952C176.55 11.952 176.118 12.06 175.758 12.276C175.422 12.468 174.978 12.816 174.426 13.32L171.546 27H166.362L170.178 9ZM187.638 36C186.486 36 185.526 35.7 184.758 35.1C183.99 34.5 183.606 33.636 183.606 32.508C183.606 31.14 184.158 30.036 185.262 29.196C186.366 28.38 187.77 27.696 189.474 27.144L189.906 25.236C188.682 26.556 187.242 27.216 185.586 27.216C184.218 27.216 183.078 26.748 182.166 25.812C181.254 24.876 180.798 23.412 180.798 21.42C180.798 19.644 181.146 17.784 181.842 15.84C182.562 13.872 183.618 12.216 185.01 10.872C186.426 9.504 188.106 8.82 190.05 8.82C191.034 8.82 191.766 8.988 192.246 9.324C192.726 9.66 192.966 10.104 192.966 10.656V10.872L193.362 9H198.546L194.982 25.704C196.134 25.32 197.058 24.744 197.754 23.976C198.45 23.208 199.038 22.068 199.518 20.556H201.03C200.382 22.692 199.506 24.264 198.402 25.272C197.298 26.256 196.05 26.928 194.658 27.288L194.118 29.88C193.638 32.208 192.81 33.804 191.634 34.668C190.458 35.556 189.126 36 187.638 36ZM187.926 23.724C188.478 23.724 189.042 23.472 189.618 22.968C190.194 22.464 190.59 21.78 190.806 20.916L192.642 12.384C192.642 12.096 192.522 11.808 192.282 11.52C192.042 11.208 191.67 11.052 191.166 11.052C190.206 11.052 189.342 11.616 188.574 12.744C187.806 13.848 187.206 15.192 186.774 16.776C186.342 18.336 186.126 19.716 186.126 20.916C186.126 22.116 186.294 22.884 186.63 23.22C186.99 23.556 187.422 23.724 187.926 23.724ZM186.81 33.192C187.218 33.192 187.614 32.916 187.998 32.364C188.382 31.812 188.682 31.02 188.898 29.988L189.114 28.944C186.762 29.808 185.586 30.828 185.586 32.004C185.586 32.316 185.694 32.592 185.91 32.832C186.126 33.072 186.426 33.192 186.81 33.192ZM203.076 27.216C201.924 27.216 200.988 26.856 200.268 26.136C199.572 25.416 199.224 24.336 199.224 22.896C199.224 22.296 199.32 21.516 199.512 20.556L201.96 9H207.144L204.552 21.24C204.48 21.6 204.444 21.936 204.444 22.248C204.444 23.232 204.804 23.724 205.524 23.724C206.196 23.724 206.772 23.448 207.252 22.896C207.732 22.32 208.116 21.54 208.404 20.556L210.852 9H216.036L213.444 21.24C213.348 21.6 213.3 21.984 213.3 22.392C213.3 22.872 213.408 23.22 213.624 23.436C213.864 23.628 214.248 23.724 214.776 23.724C215.448 23.724 216.024 23.436 216.504 22.86C217.008 22.284 217.404 21.516 217.692 20.556H219.204C218.316 23.148 217.212 24.912 215.892 25.848C214.596 26.76 213.288 27.216 211.968 27.216C210.936 27.216 210.108 26.928 209.484 26.352C208.884 25.776 208.524 24.924 208.404 23.796C207.588 25.116 206.724 26.016 205.812 26.496C204.924 26.976 204.012 27.216 203.076 27.216ZM222.836 27.216C221.06 27.216 219.68 26.76 218.696 25.848C217.712 24.912 217.219 23.46 217.219 21.492C217.219 19.836 217.543 18.012 218.192 16.02C218.84 14.028 219.896 12.312 221.36 10.872C222.824 9.408 224.684 8.676 226.939 8.676C229.58 8.676 230.9 9.828 230.9 12.132C230.9 13.476 230.516 14.712 229.748 15.84C228.98 16.968 227.96 17.88 226.688 18.576C225.416 19.248 224.06 19.632 222.62 19.728C222.572 20.448 222.548 20.928 222.548 21.168C222.548 22.344 222.752 23.148 223.16 23.58C223.568 23.988 224.228 24.192 225.14 24.192C226.436 24.192 227.54 23.892 228.452 23.292C229.388 22.692 230.408 21.78 231.512 20.556H232.736C230.072 24.996 226.772 27.216 222.836 27.216ZM222.908 18C223.796 17.952 224.636 17.64 225.428 17.064C226.244 16.488 226.892 15.756 227.372 14.868C227.876 13.98 228.128 13.044 228.128 12.06C228.128 11.076 227.828 10.584 227.228 10.584C226.364 10.584 225.512 11.34 224.672 12.852C223.856 14.364 223.268 16.08 222.908 18ZM233.952 9H239.136L238.668 11.232C239.484 10.512 240.216 9.96 240.864 9.576C241.536 9.192 242.256 9 243.024 9C243.792 9 244.392 9.264 244.824 9.792C245.28 10.32 245.508 10.956 245.508 11.7C245.508 12.396 245.28 13.008 244.824 13.536C244.368 14.064 243.732 14.328 242.916 14.328C242.388 14.328 242.028 14.208 241.836 13.968C241.668 13.704 241.536 13.332 241.44 12.852C241.368 12.54 241.296 12.312 241.224 12.168C241.152 12.024 241.02 11.952 240.828 11.952C240.324 11.952 239.892 12.06 239.532 12.276C239.196 12.468 238.752 12.816 238.2 13.32L235.32 27H230.136L233.952 9Z" fill="white"/>
</svg>
