<svg width="40" height="34" viewBox="0 0 40 34" fill="none" xmlns="http://www.w3.org/2000/svg">
<path d="M15.22 33.0243C8.54398 33.0243 3.2675 31.8579 0.743085 29.8248L0.693952 29.7852L0.649396 29.7406C0.0497264 29.1406 -0.146807 28.3536 0.110761 27.5815L0.13426 27.5174C0.44676 26.7359 1.21244 26.2097 2.04222 26.2048C3.74998 26.1752 5.24412 25.9717 6.60001 25.5765C4.43723 24.5706 2.93486 22.829 2.041 20.3082C1.7404 19.5221 1.9998 18.6505 2.69255 18.1308C2.86344 18.0023 3.05662 17.9053 3.26109 17.8403C2.05931 16.453 1.17155 14.8743 0.67442 13.2047L0.658857 13.1528L0.648175 13.0997C0.479413 12.2553 0.856915 11.3871 1.54875 11.0132C1.83897 10.8466 2.15422 10.7602 2.47068 10.7529C2.1295 10.018 1.88139 9.26365 1.73429 8.50467C1.32597 6.40141 1.66288 4.29295 2.73527 2.2379L2.98338 1.74168C3.18205 1.34465 3.56169 1.06572 3.99931 0.994613C4.43693 0.923812 4.88554 1.06847 5.19895 1.38188L5.65092 1.83446C9.22147 5.57774 12.4197 7.35386 17.9492 8.56907C18.1961 6.44657 19.1137 4.47361 20.5941 2.92088C22.3559 1.07335 24.7085 0.036667 27.2186 0.00126661H27.2351C29.0664 0.00126661 31.3381 1.0468 32.712 1.7841C33.8906 1.39836 35.3106 0.801131 36.784 0.169723C37.4734 -0.153763 38.3233 -0.00575247 38.8653 0.536239C39.3966 1.06755 39.544 1.81676 39.262 2.5449C39.1549 2.84306 39.0335 3.13572 38.8983 3.42198C39.1 3.51445 39.2846 3.63987 39.4406 3.79582C39.9121 4.26731 40.1086 5.00523 39.941 5.676L39.923 5.73979C39.3585 7.55924 38.2739 9.04117 36.8395 9.97135C36.6 22.728 26.9937 33.0243 15.22 33.0243ZM2.99253 28.5184C5.37138 29.8642 9.90476 30.6784 15.22 30.6784C20.3302 30.6784 25.1525 28.4845 28.7985 24.5007C32.4743 20.4843 34.4985 15.1508 34.4985 9.48246V9.41868C34.4985 8.90537 34.7811 8.43693 35.2358 8.19584C36.1584 7.70725 36.9055 6.87504 37.3913 5.81089C36.8902 5.88993 36.3809 5.68882 36.0687 5.26951C35.7058 4.78214 35.7019 4.12388 36.0586 3.63224C36.2512 3.36674 36.4257 3.09056 36.5814 2.80491C35.3091 3.33928 34.1009 3.8184 33.052 4.1367C32.6708 4.25206 32.246 4.20689 31.8978 4.01249C30.0305 2.97215 28.2913 2.3502 27.2427 2.34715C23.3734 2.40635 20.2273 5.72025 20.2273 9.73819C20.2273 10.1535 20.043 10.5429 19.7223 10.8069C19.4012 11.0706 18.9837 11.1762 18.576 11.0956C12.2003 9.83951 8.42222 7.95597 4.49339 4.00791C3.93034 5.3571 3.77653 6.71604 4.03684 8.0579C4.30082 9.41715 5.00303 10.7791 6.06779 11.9965C6.47245 12.4585 6.52616 13.1195 6.20145 13.6411C5.87797 14.1608 5.26304 14.4037 4.67191 14.2453C4.20988 14.1214 3.78507 13.9588 3.38224 13.7497C4.20286 15.5323 5.6143 17.1808 7.38859 18.3966C7.90281 18.7491 8.11765 19.4062 7.91135 19.9945C7.70475 20.5838 7.12766 20.9632 6.50388 20.9168C5.82426 20.8664 5.22215 20.7373 4.66795 20.5197C5.66282 22.5458 7.25248 23.6606 9.70151 24.0866C10.2847 24.1883 10.7388 24.6488 10.8316 25.2326C10.9247 25.8164 10.6357 26.395 10.1129 26.6724C8.02549 27.7789 5.744 28.3728 2.99253 28.5184Z" fill="white"/>
</svg>
